%TF.GenerationSoftware,KiCad,Pcbnew,8.0.7*%
%TF.CreationDate,2025-02-12T01:29:36+05:30*%
%TF.ProjectId,MyNEW_PCB_ART_SJCET,4d794e45-575f-4504-9342-5f4152545f53,rev?*%
%TF.SameCoordinates,Original*%
%TF.FileFunction,Soldermask,Bot*%
%TF.FilePolarity,Negative*%
%FSLAX46Y46*%
G04 Gerber Fmt 4.6, Leading zero omitted, Abs format (unit mm)*
G04 Created by KiCad (PCBNEW 8.0.7) date 2025-02-12 01:29:36*
%MOMM*%
%LPD*%
G01*
G04 APERTURE LIST*
G04 Aperture macros list*
%AMRoundRect*
0 Rectangle with rounded corners*
0 $1 Rounding radius*
0 $2 $3 $4 $5 $6 $7 $8 $9 X,Y pos of 4 corners*
0 Add a 4 corners polygon primitive as box body*
4,1,4,$2,$3,$4,$5,$6,$7,$8,$9,$2,$3,0*
0 Add four circle primitives for the rounded corners*
1,1,$1+$1,$2,$3*
1,1,$1+$1,$4,$5*
1,1,$1+$1,$6,$7*
1,1,$1+$1,$8,$9*
0 Add four rect primitives between the rounded corners*
20,1,$1+$1,$2,$3,$4,$5,0*
20,1,$1+$1,$4,$5,$6,$7,0*
20,1,$1+$1,$6,$7,$8,$9,0*
20,1,$1+$1,$8,$9,$2,$3,0*%
G04 Aperture macros list end*
%ADD10RoundRect,0.250000X0.312500X0.625000X-0.312500X0.625000X-0.312500X-0.625000X0.312500X-0.625000X0*%
%ADD11RoundRect,0.250000X0.650000X-0.325000X0.650000X0.325000X-0.650000X0.325000X-0.650000X-0.325000X0*%
%ADD12R,4.000000X3.000000*%
%ADD13RoundRect,0.250000X-0.262500X-0.450000X0.262500X-0.450000X0.262500X0.450000X-0.262500X0.450000X0*%
%ADD14RoundRect,0.150000X-0.150000X0.825000X-0.150000X-0.825000X0.150000X-0.825000X0.150000X0.825000X0*%
%ADD15RoundRect,0.250000X-0.625000X0.312500X-0.625000X-0.312500X0.625000X-0.312500X0.625000X0.312500X0*%
%ADD16RoundRect,0.243750X0.243750X0.456250X-0.243750X0.456250X-0.243750X-0.456250X0.243750X-0.456250X0*%
G04 APERTURE END LIST*
D10*
%TO.C,R3*%
X189230000Y-87630000D03*
X186305000Y-87630000D03*
%TD*%
D11*
%TO.C,C2*%
X187960000Y-94185000D03*
X187960000Y-91235000D03*
%TD*%
D12*
%TO.C,BT1*%
X194310000Y-91059000D03*
X194310000Y-96901000D03*
%TD*%
D13*
%TO.C,R2*%
X176887500Y-97790000D03*
X178712500Y-97790000D03*
%TD*%
D14*
%TO.C,U1*%
X177165000Y-88965000D03*
X178435000Y-88965000D03*
X179705000Y-88965000D03*
X180975000Y-88965000D03*
X180975000Y-93915000D03*
X179705000Y-93915000D03*
X178435000Y-93915000D03*
X177165000Y-93915000D03*
%TD*%
D15*
%TO.C,R1*%
X173990000Y-89977500D03*
X173990000Y-92902500D03*
%TD*%
D11*
%TO.C,C1*%
X184150000Y-94185000D03*
X184150000Y-91235000D03*
%TD*%
D16*
%TO.C,D1*%
X189957500Y-85200000D03*
X188082500Y-85200000D03*
%TD*%
G36*
X189544795Y-83769685D02*
G01*
X189577189Y-83799912D01*
X190679964Y-85279952D01*
X191250000Y-86040000D01*
X192079282Y-86853782D01*
X192113344Y-86914786D01*
X192109017Y-86984522D01*
X192067676Y-87040848D01*
X192002444Y-87065881D01*
X191983597Y-87065971D01*
X191620000Y-87040000D01*
X191619995Y-87040000D01*
X190389991Y-87130000D01*
X188840506Y-87343055D01*
X188771410Y-87332686D01*
X188749216Y-87319412D01*
X188691307Y-87275981D01*
X188657134Y-87236681D01*
X188509999Y-86969999D01*
X188461301Y-86928258D01*
X188428633Y-86884352D01*
X188050913Y-86032061D01*
X188049148Y-86027871D01*
X187910001Y-85680004D01*
X187910000Y-85680001D01*
X187569999Y-85129999D01*
X187029999Y-84729999D01*
X185860024Y-84220010D01*
X185303394Y-83988492D01*
X185249054Y-83944571D01*
X185227087Y-83878245D01*
X185244465Y-83810571D01*
X185295672Y-83763035D01*
X185351014Y-83750000D01*
X189477756Y-83750000D01*
X189544795Y-83769685D01*
G37*
M02*
