%TF.GenerationSoftware,KiCad,Pcbnew,8.0.7*%
%TF.CreationDate,2025-02-12T01:29:36+05:30*%
%TF.ProjectId,MyNEW_PCB_ART_SJCET,4d794e45-575f-4504-9342-5f4152545f53,rev?*%
%TF.SameCoordinates,Original*%
%TF.FileFunction,Soldermask,Top*%
%TF.FilePolarity,Negative*%
%FSLAX46Y46*%
G04 Gerber Fmt 4.6, Leading zero omitted, Abs format (unit mm)*
G04 Created by KiCad (PCBNEW 8.0.7) date 2025-02-12 01:29:36*
%MOMM*%
%LPD*%
G01*
G04 APERTURE LIST*
%ADD10C,0.000000*%
G04 APERTURE END LIST*
D10*
%TO.C,*%
G36*
X188761301Y-84751017D02*
G01*
X189295194Y-84985850D01*
X189847920Y-85319053D01*
X190212586Y-85634843D01*
X190260216Y-85741620D01*
X190207584Y-85966663D01*
X190191936Y-85964407D01*
X189903380Y-85898417D01*
X189395696Y-85813560D01*
X188839184Y-85587401D01*
X188457692Y-85199544D01*
X188394583Y-84814744D01*
X188453137Y-84730337D01*
X188761301Y-84751017D01*
G37*
G36*
X195407108Y-94823973D02*
G01*
X195322067Y-95670198D01*
X195094094Y-96296787D01*
X194783935Y-96591178D01*
X194503430Y-96498509D01*
X194322840Y-95993385D01*
X194386931Y-95254145D01*
X194659824Y-94510366D01*
X194860871Y-94211462D01*
X195398021Y-93573549D01*
X195407108Y-94823973D01*
G37*
G36*
X191271166Y-94147255D02*
G01*
X191578906Y-94456404D01*
X191885683Y-94519293D01*
X192318501Y-94636295D01*
X192411893Y-94789506D01*
X192640643Y-95009049D01*
X192958129Y-95059719D01*
X193402042Y-95166266D01*
X193504366Y-95313984D01*
X193331915Y-95663222D01*
X192997996Y-95749396D01*
X192839011Y-95628064D01*
X192490711Y-95426509D01*
X191819571Y-95237097D01*
X191606830Y-95197214D01*
X190721891Y-94961884D01*
X190209016Y-94647798D01*
X190122365Y-94314822D01*
X190516099Y-94022824D01*
X190537169Y-94014851D01*
X191063545Y-93913487D01*
X191271166Y-94147255D01*
G37*
G36*
X196735960Y-95177110D02*
G01*
X196781785Y-95276379D01*
X197022596Y-95425311D01*
X197616050Y-95514169D01*
X197756726Y-95520380D01*
X198436642Y-95570638D01*
X198836442Y-95658430D01*
X198859425Y-95674121D01*
X198882340Y-96000303D01*
X198673469Y-96477808D01*
X198361102Y-96893995D01*
X198073529Y-97036225D01*
X198045137Y-97023799D01*
X197398440Y-96856084D01*
X196636540Y-96915836D01*
X196297851Y-97048219D01*
X196074302Y-97028665D01*
X195973864Y-96569854D01*
X195962431Y-96156517D01*
X196028123Y-95398979D01*
X196246652Y-95082364D01*
X196372108Y-95059719D01*
X196735960Y-95177110D01*
G37*
G36*
X187365714Y-92908436D02*
G01*
X187753856Y-93103966D01*
X188072824Y-93081961D01*
X188491679Y-93076217D01*
X188588237Y-93193527D01*
X188822706Y-93375746D01*
X189291059Y-93438442D01*
X189810263Y-93537565D01*
X189906947Y-93883404D01*
X189902439Y-93908211D01*
X189620319Y-94329844D01*
X189150375Y-94478757D01*
X188745853Y-94280638D01*
X188727276Y-94253050D01*
X188351217Y-94080765D01*
X188019016Y-94121192D01*
X187586075Y-94129986D01*
X187495764Y-93965561D01*
X187280591Y-93760477D01*
X186949527Y-93786949D01*
X186507627Y-93752179D01*
X186417660Y-93435091D01*
X186707963Y-92988753D01*
X186788653Y-92917982D01*
X187172393Y-92743173D01*
X187365714Y-92908436D01*
G37*
G36*
X189633036Y-91705859D02*
G01*
X190333109Y-91866603D01*
X190735316Y-92055775D01*
X190773183Y-92121914D01*
X191002484Y-92312812D01*
X191325276Y-92357591D01*
X191863208Y-92492787D01*
X192555206Y-92830396D01*
X193243652Y-93268447D01*
X193770927Y-93704970D01*
X193979414Y-94037994D01*
X193973988Y-94071159D01*
X193659647Y-94377730D01*
X193036195Y-94274733D01*
X192753291Y-94149925D01*
X192283128Y-93791195D01*
X192138775Y-93488004D01*
X191972815Y-93254395D01*
X191416198Y-93283273D01*
X191319420Y-93303336D01*
X190735528Y-93371457D01*
X190516979Y-93189869D01*
X190500065Y-93023078D01*
X190344170Y-92691143D01*
X189953828Y-92706098D01*
X189498031Y-92683476D01*
X189407592Y-92445930D01*
X189281775Y-92188533D01*
X188821647Y-92173737D01*
X188519957Y-92228155D01*
X187946945Y-92326964D01*
X187824739Y-92251754D01*
X188062606Y-91968677D01*
X188517950Y-91686324D01*
X189203299Y-91650708D01*
X189633036Y-91705859D01*
G37*
%TD*%
G36*
X189544795Y-83769685D02*
G01*
X189577189Y-83799912D01*
X190679964Y-85279952D01*
X191250000Y-86040000D01*
X192079282Y-86853782D01*
X192113344Y-86914786D01*
X192109017Y-86984522D01*
X192067676Y-87040848D01*
X192002444Y-87065881D01*
X191983597Y-87065971D01*
X191620000Y-87040000D01*
X191619995Y-87040000D01*
X190389991Y-87130000D01*
X188840506Y-87343055D01*
X188771410Y-87332686D01*
X188749216Y-87319412D01*
X188691307Y-87275981D01*
X188657134Y-87236681D01*
X188509999Y-86969999D01*
X188461301Y-86928258D01*
X188428633Y-86884352D01*
X188050913Y-86032061D01*
X188049148Y-86027871D01*
X187910001Y-85680004D01*
X187910000Y-85680001D01*
X187569999Y-85129999D01*
X187029999Y-84729999D01*
X185860024Y-84220010D01*
X185303394Y-83988492D01*
X185249054Y-83944571D01*
X185227087Y-83878245D01*
X185244465Y-83810571D01*
X185295672Y-83763035D01*
X185351014Y-83750000D01*
X189477756Y-83750000D01*
X189544795Y-83769685D01*
G37*
M02*
