%TF.GenerationSoftware,KiCad,Pcbnew,8.0.7*%
%TF.CreationDate,2025-02-12T01:29:36+05:30*%
%TF.ProjectId,MyNEW_PCB_ART_SJCET,4d794e45-575f-4504-9342-5f4152545f53,rev?*%
%TF.SameCoordinates,Original*%
%TF.FileFunction,Copper,L2,Bot*%
%TF.FilePolarity,Positive*%
%FSLAX46Y46*%
G04 Gerber Fmt 4.6, Leading zero omitted, Abs format (unit mm)*
G04 Created by KiCad (PCBNEW 8.0.7) date 2025-02-12 01:29:36*
%MOMM*%
%LPD*%
G01*
G04 APERTURE LIST*
G04 Aperture macros list*
%AMRoundRect*
0 Rectangle with rounded corners*
0 $1 Rounding radius*
0 $2 $3 $4 $5 $6 $7 $8 $9 X,Y pos of 4 corners*
0 Add a 4 corners polygon primitive as box body*
4,1,4,$2,$3,$4,$5,$6,$7,$8,$9,$2,$3,0*
0 Add four circle primitives for the rounded corners*
1,1,$1+$1,$2,$3*
1,1,$1+$1,$4,$5*
1,1,$1+$1,$6,$7*
1,1,$1+$1,$8,$9*
0 Add four rect primitives between the rounded corners*
20,1,$1+$1,$2,$3,$4,$5,0*
20,1,$1+$1,$4,$5,$6,$7,0*
20,1,$1+$1,$6,$7,$8,$9,0*
20,1,$1+$1,$8,$9,$2,$3,0*%
G04 Aperture macros list end*
%TA.AperFunction,SMDPad,CuDef*%
%ADD10RoundRect,0.250000X0.312500X0.625000X-0.312500X0.625000X-0.312500X-0.625000X0.312500X-0.625000X0*%
%TD*%
%TA.AperFunction,SMDPad,CuDef*%
%ADD11RoundRect,0.250000X0.650000X-0.325000X0.650000X0.325000X-0.650000X0.325000X-0.650000X-0.325000X0*%
%TD*%
%TA.AperFunction,SMDPad,CuDef*%
%ADD12R,4.000000X3.000000*%
%TD*%
%TA.AperFunction,SMDPad,CuDef*%
%ADD13RoundRect,0.250000X-0.262500X-0.450000X0.262500X-0.450000X0.262500X0.450000X-0.262500X0.450000X0*%
%TD*%
%TA.AperFunction,SMDPad,CuDef*%
%ADD14RoundRect,0.150000X-0.150000X0.825000X-0.150000X-0.825000X0.150000X-0.825000X0.150000X0.825000X0*%
%TD*%
%TA.AperFunction,SMDPad,CuDef*%
%ADD15RoundRect,0.250000X-0.625000X0.312500X-0.625000X-0.312500X0.625000X-0.312500X0.625000X0.312500X0*%
%TD*%
%TA.AperFunction,SMDPad,CuDef*%
%ADD16RoundRect,0.243750X0.243750X0.456250X-0.243750X0.456250X-0.243750X-0.456250X0.243750X-0.456250X0*%
%TD*%
%TA.AperFunction,Conductor*%
%ADD17C,0.200000*%
%TD*%
G04 APERTURE END LIST*
D10*
%TO.P,R3,1*%
%TO.N,Net-(D1-K)*%
X189230000Y-87630000D03*
%TO.P,R3,2*%
%TO.N,GND*%
X186305000Y-87630000D03*
%TD*%
D11*
%TO.P,C2,1*%
%TO.N,Net-(U1-THR)*%
X187960000Y-94185000D03*
%TO.P,C2,2*%
%TO.N,GND*%
X187960000Y-91235000D03*
%TD*%
D12*
%TO.P,BT1,1,+*%
%TO.N,+3V3*%
X194310000Y-91059000D03*
%TO.P,BT1,2,-*%
%TO.N,GND*%
X194310000Y-96901000D03*
%TD*%
D13*
%TO.P,R2,1*%
%TO.N,+3V3*%
X176887500Y-97790000D03*
%TO.P,R2,2*%
%TO.N,Net-(U1-DIS)*%
X178712500Y-97790000D03*
%TD*%
D14*
%TO.P,U1,1,GND*%
%TO.N,GND*%
X177165000Y-88965000D03*
%TO.P,U1,2,TR*%
%TO.N,Net-(U1-THR)*%
X178435000Y-88965000D03*
%TO.P,U1,3,Q*%
%TO.N,/OUT*%
X179705000Y-88965000D03*
%TO.P,U1,4,R*%
%TO.N,+3V3*%
X180975000Y-88965000D03*
%TO.P,U1,5,CV*%
%TO.N,unconnected-(U1-CV-Pad5)*%
X180975000Y-93915000D03*
%TO.P,U1,6,THR*%
%TO.N,Net-(U1-THR)*%
X179705000Y-93915000D03*
%TO.P,U1,7,DIS*%
%TO.N,Net-(U1-DIS)*%
X178435000Y-93915000D03*
%TO.P,U1,8,VCC*%
%TO.N,+3V3*%
X177165000Y-93915000D03*
%TD*%
D15*
%TO.P,R1,1*%
%TO.N,Net-(U1-THR)*%
X173990000Y-89977500D03*
%TO.P,R1,2*%
%TO.N,Net-(U1-DIS)*%
X173990000Y-92902500D03*
%TD*%
D11*
%TO.P,C1,1*%
%TO.N,Net-(U1-THR)*%
X184150000Y-94185000D03*
%TO.P,C1,2*%
%TO.N,GND*%
X184150000Y-91235000D03*
%TD*%
D16*
%TO.P,D1,1,K*%
%TO.N,Net-(D1-K)*%
X189957500Y-85200000D03*
%TO.P,D1,2,A*%
%TO.N,/OUT*%
X188082500Y-85200000D03*
%TD*%
D17*
%TO.N,+3V3*%
X177165000Y-97512500D02*
X176887500Y-97790000D01*
X180975000Y-89310552D02*
X180975000Y-88965000D01*
X177165000Y-93915000D02*
X177165000Y-97512500D01*
X192216000Y-88965000D02*
X194310000Y-91059000D01*
X177165000Y-93915000D02*
X177165000Y-93120552D01*
X180975000Y-88965000D02*
X192216000Y-88965000D01*
X177165000Y-93120552D02*
X180975000Y-89310552D01*
%TO.N,Net-(U1-THR)*%
X178074999Y-87630000D02*
X176337500Y-87630000D01*
X173990000Y-89977500D02*
X172720000Y-91247500D01*
X180005001Y-92640000D02*
X182605000Y-92640000D01*
X178809744Y-99190000D02*
X179705000Y-98294744D01*
X172720000Y-97085686D02*
X174824314Y-99190000D01*
X184150000Y-94185000D02*
X187960000Y-94185000D01*
X178435000Y-87990001D02*
X178074999Y-87630000D01*
X179705000Y-98294744D02*
X179705000Y-93915000D01*
X172720000Y-91247500D02*
X172720000Y-97085686D01*
X182605000Y-92640000D02*
X184150000Y-94185000D01*
X174824314Y-99190000D02*
X178809744Y-99190000D01*
X178435000Y-88965000D02*
X178435000Y-87990001D01*
X179705000Y-93915000D02*
X179705000Y-92940001D01*
X179705000Y-92940001D02*
X180005001Y-92640000D01*
X176337500Y-87630000D02*
X173990000Y-89977500D01*
%TO.N,/OUT*%
X181500000Y-85200000D02*
X179705000Y-86995000D01*
X188082500Y-85200000D02*
X181500000Y-85200000D01*
X179705000Y-86995000D02*
X179705000Y-88965000D01*
%TO.N,Net-(D1-K)*%
X189957500Y-86902500D02*
X189230000Y-87630000D01*
X189957500Y-85200000D02*
X189957500Y-86902500D01*
X188937500Y-87337500D02*
X189230000Y-87630000D01*
%TO.N,Net-(U1-DIS)*%
X178435000Y-97512500D02*
X178712500Y-97790000D01*
X173990000Y-92902500D02*
X173990000Y-97790000D01*
X173990000Y-97790000D02*
X174990000Y-98790000D01*
X174990000Y-98790000D02*
X177712500Y-98790000D01*
X178435000Y-93915000D02*
X178435000Y-97512500D01*
X177712500Y-98790000D02*
X178712500Y-97790000D01*
%TD*%
%TA.AperFunction,Conductor*%
%TO.N,GND*%
G36*
X168287509Y-75210421D02*
G01*
X169458053Y-75585042D01*
X169467921Y-75588668D01*
X170612447Y-76065545D01*
X170626402Y-76072418D01*
X185624452Y-84667916D01*
X185672829Y-84718329D01*
X185686270Y-84786893D01*
X185660509Y-84851841D01*
X185603725Y-84892550D01*
X185562795Y-84899500D01*
X181460438Y-84899500D01*
X181422224Y-84909739D01*
X181384009Y-84919979D01*
X181384008Y-84919980D01*
X181333208Y-84949310D01*
X181327943Y-84952349D01*
X181315489Y-84959539D01*
X179464541Y-86810487D01*
X179464535Y-86810495D01*
X179424982Y-86879004D01*
X179424979Y-86879009D01*
X179413915Y-86920301D01*
X179405761Y-86950734D01*
X179404500Y-86955439D01*
X179404500Y-87747002D01*
X179384815Y-87814041D01*
X179352555Y-87847918D01*
X179348516Y-87850801D01*
X179265803Y-87933514D01*
X179214426Y-88038608D01*
X179204500Y-88106739D01*
X179204500Y-89823260D01*
X179214426Y-89891391D01*
X179265803Y-89996485D01*
X179348514Y-90079196D01*
X179348515Y-90079196D01*
X179348517Y-90079198D01*
X179416681Y-90112521D01*
X179453609Y-90130574D01*
X179462807Y-90133416D01*
X179462152Y-90135532D01*
X179513792Y-90159226D01*
X179551462Y-90218071D01*
X179551338Y-90287941D01*
X179520104Y-90340476D01*
X177157400Y-92703181D01*
X177096077Y-92736666D01*
X177069719Y-92739500D01*
X176981739Y-92739500D01*
X176913608Y-92749426D01*
X176808514Y-92800803D01*
X176725803Y-92883514D01*
X176674426Y-92988608D01*
X176664500Y-93056739D01*
X176664500Y-94773260D01*
X176674426Y-94841391D01*
X176725803Y-94946485D01*
X176808512Y-95029194D01*
X176808515Y-95029196D01*
X176808517Y-95029198D01*
X176808518Y-95029198D01*
X176812550Y-95032077D01*
X176855674Y-95087051D01*
X176864500Y-95132997D01*
X176864500Y-96765500D01*
X176844815Y-96832539D01*
X176792011Y-96878294D01*
X176740500Y-96889500D01*
X176570730Y-96889500D01*
X176540300Y-96892353D01*
X176540298Y-96892353D01*
X176412119Y-96937206D01*
X176412117Y-96937207D01*
X176302850Y-97017850D01*
X176222207Y-97127117D01*
X176222206Y-97127119D01*
X176177353Y-97255298D01*
X176177353Y-97255300D01*
X176174500Y-97285730D01*
X176174500Y-98294269D01*
X176177353Y-98324699D01*
X176178964Y-98332073D01*
X176177698Y-98332349D01*
X176180861Y-98394327D01*
X176146130Y-98454954D01*
X176084136Y-98487179D01*
X176060258Y-98489500D01*
X175165833Y-98489500D01*
X175098794Y-98469815D01*
X175078152Y-98453181D01*
X174326819Y-97701848D01*
X174293334Y-97640525D01*
X174290500Y-97614167D01*
X174290500Y-93789500D01*
X174310185Y-93722461D01*
X174362989Y-93676706D01*
X174414500Y-93665500D01*
X174669270Y-93665500D01*
X174699699Y-93662646D01*
X174699701Y-93662646D01*
X174763790Y-93640219D01*
X174827882Y-93617793D01*
X174937150Y-93537150D01*
X175017793Y-93427882D01*
X175053517Y-93325789D01*
X175062646Y-93299701D01*
X175062646Y-93299699D01*
X175065500Y-93269269D01*
X175065500Y-92535730D01*
X175062646Y-92505300D01*
X175062646Y-92505298D01*
X175017793Y-92377119D01*
X175017792Y-92377117D01*
X175005144Y-92359979D01*
X174937150Y-92267850D01*
X174827882Y-92187207D01*
X174827880Y-92187206D01*
X174699700Y-92142353D01*
X174669270Y-92139500D01*
X174669266Y-92139500D01*
X173310734Y-92139500D01*
X173310730Y-92139500D01*
X173280302Y-92142353D01*
X173185454Y-92175542D01*
X173115676Y-92179103D01*
X173055048Y-92144374D01*
X173022821Y-92082381D01*
X173020500Y-92058500D01*
X173020500Y-91423333D01*
X173040185Y-91356294D01*
X173056819Y-91335652D01*
X173615652Y-90776819D01*
X173676975Y-90743334D01*
X173703333Y-90740500D01*
X174669270Y-90740500D01*
X174699699Y-90737646D01*
X174699701Y-90737646D01*
X174763790Y-90715219D01*
X174827882Y-90692793D01*
X174937150Y-90612150D01*
X175017793Y-90502882D01*
X175040811Y-90437100D01*
X175062646Y-90374701D01*
X175062646Y-90374699D01*
X175065500Y-90344269D01*
X175065500Y-89855649D01*
X176365000Y-89855649D01*
X176367899Y-89892489D01*
X176367900Y-89892495D01*
X176413716Y-90050193D01*
X176413717Y-90050196D01*
X176497314Y-90191552D01*
X176497321Y-90191561D01*
X176613438Y-90307678D01*
X176613447Y-90307685D01*
X176754801Y-90391281D01*
X176912514Y-90437100D01*
X176912511Y-90437100D01*
X176914998Y-90437295D01*
X176915000Y-90437295D01*
X176915000Y-89215000D01*
X176365000Y-89215000D01*
X176365000Y-89855649D01*
X175065500Y-89855649D01*
X175065500Y-89610730D01*
X175062646Y-89580300D01*
X175062645Y-89580298D01*
X175023453Y-89468292D01*
X175019891Y-89398513D01*
X175052811Y-89339658D01*
X176153320Y-88239150D01*
X176214642Y-88205666D01*
X176284334Y-88210650D01*
X176340267Y-88252522D01*
X176364684Y-88317986D01*
X176365000Y-88326832D01*
X176365000Y-88715000D01*
X177041000Y-88715000D01*
X177108039Y-88734685D01*
X177153794Y-88787489D01*
X177165000Y-88839000D01*
X177165000Y-88965000D01*
X177291000Y-88965000D01*
X177358039Y-88984685D01*
X177403794Y-89037489D01*
X177415000Y-89089000D01*
X177415000Y-90437295D01*
X177415001Y-90437295D01*
X177417486Y-90437100D01*
X177575198Y-90391281D01*
X177716552Y-90307685D01*
X177716561Y-90307678D01*
X177832678Y-90191561D01*
X177832687Y-90191550D01*
X177884419Y-90104075D01*
X177935487Y-90056391D01*
X178004229Y-90043887D01*
X178068818Y-90070532D01*
X178078337Y-90079070D01*
X178078513Y-90079195D01*
X178078514Y-90079195D01*
X178078517Y-90079198D01*
X178183607Y-90130573D01*
X178203120Y-90133416D01*
X178251739Y-90140500D01*
X178251740Y-90140500D01*
X178618261Y-90140500D01*
X178652357Y-90135532D01*
X178686393Y-90130573D01*
X178791483Y-90079198D01*
X178874198Y-89996483D01*
X178925573Y-89891393D01*
X178935500Y-89823260D01*
X178935500Y-88106740D01*
X178925573Y-88038607D01*
X178874198Y-87933517D01*
X178874196Y-87933515D01*
X178874196Y-87933514D01*
X178791485Y-87850803D01*
X178735498Y-87823433D01*
X178686393Y-87799427D01*
X178686392Y-87799426D01*
X178677742Y-87795198D01*
X178678640Y-87793359D01*
X178640073Y-87770103D01*
X178259511Y-87389541D01*
X178259510Y-87389540D01*
X178233908Y-87374759D01*
X178233908Y-87374757D01*
X178233905Y-87374757D01*
X178190993Y-87349981D01*
X178190990Y-87349979D01*
X178152774Y-87339739D01*
X178114561Y-87329500D01*
X176297938Y-87329500D01*
X176246986Y-87343152D01*
X176221510Y-87349979D01*
X176187662Y-87369521D01*
X176178595Y-87374757D01*
X176178593Y-87374758D01*
X176178591Y-87374759D01*
X176152990Y-87389539D01*
X176152987Y-87389541D01*
X174364348Y-89178181D01*
X174303025Y-89211666D01*
X174276667Y-89214500D01*
X173310730Y-89214500D01*
X173280300Y-89217353D01*
X173280298Y-89217353D01*
X173152119Y-89262206D01*
X173152117Y-89262207D01*
X173042850Y-89342850D01*
X172962207Y-89452117D01*
X172962206Y-89452119D01*
X172917353Y-89580298D01*
X172917353Y-89580300D01*
X172914500Y-89610730D01*
X172914500Y-90344269D01*
X172917353Y-90374696D01*
X172917353Y-90374698D01*
X172917354Y-90374699D01*
X172940782Y-90441654D01*
X172956547Y-90486706D01*
X172960108Y-90556485D01*
X172927186Y-90615342D01*
X172535489Y-91007040D01*
X172479541Y-91062987D01*
X172479535Y-91062995D01*
X172439982Y-91131504D01*
X172439979Y-91131509D01*
X172426326Y-91182462D01*
X172419500Y-91207938D01*
X172419500Y-97125248D01*
X172427428Y-97154835D01*
X172439978Y-97201673D01*
X172457765Y-97232481D01*
X172457764Y-97232481D01*
X172479535Y-97270190D01*
X172479539Y-97270195D01*
X172479540Y-97270197D01*
X174583854Y-99374511D01*
X174639803Y-99430460D01*
X174639805Y-99430461D01*
X174639809Y-99430464D01*
X174674896Y-99450721D01*
X174708325Y-99470021D01*
X174784752Y-99490500D01*
X174784754Y-99490500D01*
X178849304Y-99490500D01*
X178849306Y-99490500D01*
X178925733Y-99470021D01*
X178994255Y-99430460D01*
X179050204Y-99374511D01*
X179945460Y-98479255D01*
X179950230Y-98470993D01*
X179985021Y-98410733D01*
X180005500Y-98334306D01*
X180005500Y-95353155D01*
X191810000Y-95353155D01*
X191810000Y-96651000D01*
X194060000Y-96651000D01*
X194560000Y-96651000D01*
X196810000Y-96651000D01*
X196810000Y-95353172D01*
X196809999Y-95353155D01*
X196803598Y-95293627D01*
X196803596Y-95293620D01*
X196753354Y-95158913D01*
X196753350Y-95158906D01*
X196667190Y-95043812D01*
X196667187Y-95043809D01*
X196552093Y-94957649D01*
X196552086Y-94957645D01*
X196417379Y-94907403D01*
X196417372Y-94907401D01*
X196357844Y-94901000D01*
X194560000Y-94901000D01*
X194560000Y-96651000D01*
X194060000Y-96651000D01*
X194060000Y-94901000D01*
X192262155Y-94901000D01*
X192202627Y-94907401D01*
X192202620Y-94907403D01*
X192067913Y-94957645D01*
X192067906Y-94957649D01*
X191952812Y-95043809D01*
X191952809Y-95043812D01*
X191866649Y-95158906D01*
X191866645Y-95158913D01*
X191816403Y-95293620D01*
X191816401Y-95293627D01*
X191810000Y-95353155D01*
X180005500Y-95353155D01*
X180005500Y-95132997D01*
X180025185Y-95065958D01*
X180057450Y-95032077D01*
X180061477Y-95029200D01*
X180061483Y-95029198D01*
X180144198Y-94946483D01*
X180195573Y-94841393D01*
X180205500Y-94773260D01*
X180205500Y-93064500D01*
X180225185Y-92997461D01*
X180277989Y-92951706D01*
X180329500Y-92940500D01*
X180350500Y-92940500D01*
X180417539Y-92960185D01*
X180463294Y-93012989D01*
X180474500Y-93064500D01*
X180474500Y-94773260D01*
X180484426Y-94841391D01*
X180535803Y-94946485D01*
X180618514Y-95029196D01*
X180618515Y-95029196D01*
X180618517Y-95029198D01*
X180723607Y-95080573D01*
X180757673Y-95085536D01*
X180791739Y-95090500D01*
X180791740Y-95090500D01*
X181158261Y-95090500D01*
X181181932Y-95087051D01*
X181226393Y-95080573D01*
X181331483Y-95029198D01*
X181414198Y-94946483D01*
X181465573Y-94841393D01*
X181475500Y-94773260D01*
X181475500Y-93064500D01*
X181495185Y-92997461D01*
X181547989Y-92951706D01*
X181599500Y-92940500D01*
X182429167Y-92940500D01*
X182496206Y-92960185D01*
X182516848Y-92976819D01*
X183065426Y-93525397D01*
X183098911Y-93586720D01*
X183094787Y-93654032D01*
X183052353Y-93775301D01*
X183049500Y-93805730D01*
X183049500Y-94564269D01*
X183052353Y-94594699D01*
X183052353Y-94594701D01*
X183097206Y-94722880D01*
X183097207Y-94722882D01*
X183177850Y-94832150D01*
X183287118Y-94912793D01*
X183329845Y-94927744D01*
X183415299Y-94957646D01*
X183445730Y-94960500D01*
X183445734Y-94960500D01*
X184854270Y-94960500D01*
X184884699Y-94957646D01*
X184884701Y-94957646D01*
X184948790Y-94935219D01*
X185012882Y-94912793D01*
X185122150Y-94832150D01*
X185202793Y-94722882D01*
X185225219Y-94658790D01*
X185247646Y-94594701D01*
X185249256Y-94587330D01*
X185251379Y-94587793D01*
X185273198Y-94533018D01*
X185330041Y-94492391D01*
X185370802Y-94485500D01*
X186739198Y-94485500D01*
X186806237Y-94505185D01*
X186851992Y-94557989D01*
X186859877Y-94587519D01*
X186860744Y-94587330D01*
X186862353Y-94594701D01*
X186907206Y-94722880D01*
X186907207Y-94722882D01*
X186987850Y-94832150D01*
X187097118Y-94912793D01*
X187139845Y-94927744D01*
X187225299Y-94957646D01*
X187255730Y-94960500D01*
X187255734Y-94960500D01*
X188664270Y-94960500D01*
X188694699Y-94957646D01*
X188694701Y-94957646D01*
X188758790Y-94935219D01*
X188822882Y-94912793D01*
X188932150Y-94832150D01*
X189012793Y-94722882D01*
X189035219Y-94658790D01*
X189057646Y-94594701D01*
X189057646Y-94594699D01*
X189060500Y-94564269D01*
X189060500Y-93805730D01*
X189057646Y-93775300D01*
X189057646Y-93775298D01*
X189018392Y-93663119D01*
X189012793Y-93647118D01*
X188932150Y-93537850D01*
X188822882Y-93457207D01*
X188822880Y-93457206D01*
X188694700Y-93412353D01*
X188664270Y-93409500D01*
X188664266Y-93409500D01*
X187255734Y-93409500D01*
X187255730Y-93409500D01*
X187225300Y-93412353D01*
X187225298Y-93412353D01*
X187097119Y-93457206D01*
X187097117Y-93457207D01*
X186987850Y-93537850D01*
X186907207Y-93647117D01*
X186907206Y-93647119D01*
X186862353Y-93775298D01*
X186860744Y-93782670D01*
X186858620Y-93782206D01*
X186836802Y-93836982D01*
X186779959Y-93877609D01*
X186739198Y-93884500D01*
X185370802Y-93884500D01*
X185303763Y-93864815D01*
X185258008Y-93812011D01*
X185250122Y-93782480D01*
X185249256Y-93782670D01*
X185247646Y-93775298D01*
X185208392Y-93663119D01*
X185202793Y-93647118D01*
X185122150Y-93537850D01*
X185012882Y-93457207D01*
X185012880Y-93457206D01*
X184884700Y-93412353D01*
X184854270Y-93409500D01*
X184854266Y-93409500D01*
X183850833Y-93409500D01*
X183783794Y-93389815D01*
X183763152Y-93373181D01*
X182789513Y-92399541D01*
X182787806Y-92398555D01*
X182780180Y-92394153D01*
X182720989Y-92359979D01*
X182644562Y-92339500D01*
X179965439Y-92339500D01*
X179914487Y-92353152D01*
X179889011Y-92359979D01*
X179862913Y-92375046D01*
X179829821Y-92394153D01*
X179825287Y-92396770D01*
X179820487Y-92399541D01*
X179590852Y-92629178D01*
X179520489Y-92699541D01*
X179507322Y-92712707D01*
X179499921Y-92720108D01*
X179461359Y-92743360D01*
X179462258Y-92745198D01*
X179348514Y-92800803D01*
X179265803Y-92883514D01*
X179214426Y-92988608D01*
X179204500Y-93056739D01*
X179204500Y-94773260D01*
X179214426Y-94841391D01*
X179265803Y-94946485D01*
X179348512Y-95029194D01*
X179348515Y-95029196D01*
X179348517Y-95029198D01*
X179348518Y-95029198D01*
X179352550Y-95032077D01*
X179395674Y-95087051D01*
X179404500Y-95132997D01*
X179404500Y-96851448D01*
X179384815Y-96918487D01*
X179332011Y-96964242D01*
X179262853Y-96974186D01*
X179206867Y-96951218D01*
X179187886Y-96937209D01*
X179187880Y-96937206D01*
X179059700Y-96892353D01*
X179029270Y-96889500D01*
X179029266Y-96889500D01*
X178859500Y-96889500D01*
X178792461Y-96869815D01*
X178746706Y-96817011D01*
X178735500Y-96765500D01*
X178735500Y-95132997D01*
X178755185Y-95065958D01*
X178787450Y-95032077D01*
X178791477Y-95029200D01*
X178791483Y-95029198D01*
X178874198Y-94946483D01*
X178925573Y-94841393D01*
X178935500Y-94773260D01*
X178935500Y-93056740D01*
X178934913Y-93052714D01*
X178925573Y-92988608D01*
X178919810Y-92976819D01*
X178874198Y-92883517D01*
X178874196Y-92883515D01*
X178874196Y-92883514D01*
X178791485Y-92800803D01*
X178686391Y-92749426D01*
X178618261Y-92739500D01*
X178618260Y-92739500D01*
X178270384Y-92739500D01*
X178203345Y-92719815D01*
X178157590Y-92667011D01*
X178147646Y-92597853D01*
X178176671Y-92534297D01*
X178182703Y-92527819D01*
X179100536Y-91609986D01*
X182750001Y-91609986D01*
X182760494Y-91712697D01*
X182815641Y-91879119D01*
X182815643Y-91879124D01*
X182907684Y-92028345D01*
X183031654Y-92152315D01*
X183180875Y-92244356D01*
X183180880Y-92244358D01*
X183347302Y-92299505D01*
X183347309Y-92299506D01*
X183450019Y-92309999D01*
X183899999Y-92309999D01*
X184400000Y-92309999D01*
X184849972Y-92309999D01*
X184849986Y-92309998D01*
X184952697Y-92299505D01*
X185119119Y-92244358D01*
X185119124Y-92244356D01*
X185268345Y-92152315D01*
X185392315Y-92028345D01*
X185484356Y-91879124D01*
X185484358Y-91879119D01*
X185539505Y-91712697D01*
X185539506Y-91712690D01*
X185549999Y-91609986D01*
X186560001Y-91609986D01*
X186570494Y-91712697D01*
X186625641Y-91879119D01*
X186625643Y-91879124D01*
X186717684Y-92028345D01*
X186841654Y-92152315D01*
X186990875Y-92244356D01*
X186990880Y-92244358D01*
X187157302Y-92299505D01*
X187157309Y-92299506D01*
X187260019Y-92309999D01*
X187709999Y-92309999D01*
X188210000Y-92309999D01*
X188659972Y-92309999D01*
X188659986Y-92309998D01*
X188762697Y-92299505D01*
X188929119Y-92244358D01*
X188929124Y-92244356D01*
X189078345Y-92152315D01*
X189202315Y-92028345D01*
X189294356Y-91879124D01*
X189294358Y-91879119D01*
X189349505Y-91712697D01*
X189349506Y-91712690D01*
X189359999Y-91609986D01*
X189360000Y-91609973D01*
X189360000Y-91485000D01*
X188210000Y-91485000D01*
X188210000Y-92309999D01*
X187709999Y-92309999D01*
X187710000Y-92309998D01*
X187710000Y-91485000D01*
X186560001Y-91485000D01*
X186560001Y-91609986D01*
X185549999Y-91609986D01*
X185550000Y-91609973D01*
X185550000Y-91485000D01*
X184400000Y-91485000D01*
X184400000Y-92309999D01*
X183899999Y-92309999D01*
X183900000Y-92309998D01*
X183900000Y-91485000D01*
X182750001Y-91485000D01*
X182750001Y-91609986D01*
X179100536Y-91609986D01*
X179354228Y-91356294D01*
X179850509Y-90860013D01*
X182750000Y-90860013D01*
X182750000Y-90985000D01*
X183900000Y-90985000D01*
X184400000Y-90985000D01*
X185549999Y-90985000D01*
X185549999Y-90860028D01*
X185549998Y-90860013D01*
X186560000Y-90860013D01*
X186560000Y-90985000D01*
X187710000Y-90985000D01*
X188210000Y-90985000D01*
X189359999Y-90985000D01*
X189359999Y-90860028D01*
X189359998Y-90860013D01*
X189349505Y-90757302D01*
X189294358Y-90590880D01*
X189294356Y-90590875D01*
X189202315Y-90441654D01*
X189078345Y-90317684D01*
X188929124Y-90225643D01*
X188929119Y-90225641D01*
X188762697Y-90170494D01*
X188762690Y-90170493D01*
X188659986Y-90160000D01*
X188210000Y-90160000D01*
X188210000Y-90985000D01*
X187710000Y-90985000D01*
X187710000Y-90160000D01*
X187260028Y-90160000D01*
X187260012Y-90160001D01*
X187157302Y-90170494D01*
X186990880Y-90225641D01*
X186990875Y-90225643D01*
X186841654Y-90317684D01*
X186717684Y-90441654D01*
X186625643Y-90590875D01*
X186625641Y-90590880D01*
X186570494Y-90757302D01*
X186570493Y-90757309D01*
X186560000Y-90860013D01*
X185549998Y-90860013D01*
X185539505Y-90757302D01*
X185484358Y-90590880D01*
X185484356Y-90590875D01*
X185392315Y-90441654D01*
X185268345Y-90317684D01*
X185119124Y-90225643D01*
X185119119Y-90225641D01*
X184952697Y-90170494D01*
X184952690Y-90170493D01*
X184849986Y-90160000D01*
X184400000Y-90160000D01*
X184400000Y-90985000D01*
X183900000Y-90985000D01*
X183900000Y-90160000D01*
X183450028Y-90160000D01*
X183450012Y-90160001D01*
X183347302Y-90170494D01*
X183180880Y-90225641D01*
X183180875Y-90225643D01*
X183031654Y-90317684D01*
X182907684Y-90441654D01*
X182815643Y-90590875D01*
X182815641Y-90590880D01*
X182760494Y-90757302D01*
X182760493Y-90757309D01*
X182750000Y-90860013D01*
X179850509Y-90860013D01*
X180564517Y-90146004D01*
X180625838Y-90112521D01*
X180695530Y-90117505D01*
X180706652Y-90122284D01*
X180723607Y-90130573D01*
X180743120Y-90133416D01*
X180791739Y-90140500D01*
X180791740Y-90140500D01*
X181158261Y-90140500D01*
X181192357Y-90135532D01*
X181226393Y-90130573D01*
X181331483Y-90079198D01*
X181414198Y-89996483D01*
X181465573Y-89891393D01*
X181475500Y-89823260D01*
X181475500Y-89389500D01*
X181495185Y-89322461D01*
X181547989Y-89276706D01*
X181599500Y-89265500D01*
X192032983Y-89265500D01*
X192100022Y-89285185D01*
X192145777Y-89337989D01*
X192155721Y-89407147D01*
X192136086Y-89458390D01*
X192121132Y-89480770D01*
X192121131Y-89480770D01*
X192109500Y-89539247D01*
X192109500Y-92578752D01*
X192121131Y-92637229D01*
X192121132Y-92637230D01*
X192165447Y-92703552D01*
X192231769Y-92747867D01*
X192231770Y-92747868D01*
X192290247Y-92759499D01*
X192290250Y-92759500D01*
X192290252Y-92759500D01*
X196329750Y-92759500D01*
X196329751Y-92759499D01*
X196344568Y-92756552D01*
X196388229Y-92747868D01*
X196388229Y-92747867D01*
X196388231Y-92747867D01*
X196454552Y-92703552D01*
X196498867Y-92637231D01*
X196498867Y-92637229D01*
X196498868Y-92637229D01*
X196510499Y-92578752D01*
X196510500Y-92578750D01*
X196510500Y-89539249D01*
X196510499Y-89539247D01*
X196498868Y-89480770D01*
X196498867Y-89480769D01*
X196454552Y-89414447D01*
X196388230Y-89370132D01*
X196388229Y-89370131D01*
X196329752Y-89358500D01*
X196329748Y-89358500D01*
X193085833Y-89358500D01*
X193018794Y-89338815D01*
X192998152Y-89322181D01*
X192400511Y-88724540D01*
X192393200Y-88720319D01*
X192331991Y-88684980D01*
X192331990Y-88684979D01*
X192306513Y-88678152D01*
X192255562Y-88664500D01*
X192255560Y-88664500D01*
X190045813Y-88664500D01*
X189978774Y-88644815D01*
X189933019Y-88592011D01*
X189923075Y-88522853D01*
X189942021Y-88476667D01*
X189940949Y-88476101D01*
X189945289Y-88467887D01*
X189945293Y-88467882D01*
X189970941Y-88394584D01*
X189990146Y-88339701D01*
X189990146Y-88339699D01*
X189993000Y-88309269D01*
X189993000Y-87787436D01*
X190012685Y-87720397D01*
X190065489Y-87674642D01*
X190123231Y-87663593D01*
X195006188Y-87909410D01*
X195046516Y-87918329D01*
X195145192Y-87958317D01*
X195163478Y-87967555D01*
X195175496Y-87974932D01*
X195209843Y-87985133D01*
X195221074Y-87989067D01*
X195254264Y-88002518D01*
X195268253Y-88004250D01*
X195288305Y-88008439D01*
X196464214Y-88357726D01*
X196487438Y-88367277D01*
X196489495Y-88368379D01*
X196515278Y-88374409D01*
X196535716Y-88379190D01*
X196542784Y-88381064D01*
X196588303Y-88394586D01*
X196590632Y-88394648D01*
X196615536Y-88397861D01*
X197954443Y-88711048D01*
X197995591Y-88729024D01*
X202805026Y-91976844D01*
X202849567Y-92030676D01*
X202857934Y-92100043D01*
X202827910Y-92162434D01*
X201579411Y-93553428D01*
X201558166Y-93572238D01*
X199270939Y-95170799D01*
X199258841Y-95177319D01*
X199259169Y-95177906D01*
X199252072Y-95181865D01*
X199206663Y-95215655D01*
X199203676Y-95217810D01*
X199157274Y-95250241D01*
X199151729Y-95255313D01*
X199146350Y-95260537D01*
X199111227Y-95304936D01*
X199108901Y-95307788D01*
X199072480Y-95351119D01*
X199068107Y-95357970D01*
X199067539Y-95357607D01*
X199060314Y-95369299D01*
X198084767Y-96602550D01*
X198066739Y-96621012D01*
X198066338Y-96621344D01*
X198066328Y-96621355D01*
X198037842Y-96661588D01*
X198033895Y-96666860D01*
X198003327Y-96705504D01*
X198003121Y-96705983D01*
X197990485Y-96728478D01*
X197990179Y-96728908D01*
X197973073Y-96775155D01*
X197970625Y-96781270D01*
X197951103Y-96826503D01*
X197951102Y-96826503D01*
X197951026Y-96827028D01*
X197944649Y-96852005D01*
X197944466Y-96852498D01*
X197944463Y-96852513D01*
X197939912Y-96901583D01*
X197939129Y-96908126D01*
X197931976Y-96956891D01*
X197932036Y-96957401D01*
X197932341Y-96983216D01*
X197587790Y-100698447D01*
X197587171Y-100703837D01*
X197580077Y-100755585D01*
X197580033Y-100763714D01*
X197579946Y-100763713D01*
X197580043Y-100769576D01*
X197580129Y-100769573D01*
X197580441Y-100777695D01*
X197589240Y-100829167D01*
X197590038Y-100834538D01*
X197657581Y-101369859D01*
X197646443Y-101438835D01*
X197599782Y-101490840D01*
X197532412Y-101509362D01*
X197479996Y-101496733D01*
X197387193Y-101451262D01*
X197378297Y-101446443D01*
X197234794Y-101360966D01*
X196811574Y-101108877D01*
X196806401Y-101105619D01*
X196764443Y-101077708D01*
X196764442Y-101077707D01*
X196764438Y-101077705D01*
X196762376Y-101076694D01*
X196743766Y-101068131D01*
X196741613Y-101067204D01*
X196693185Y-101053519D01*
X196687291Y-101051694D01*
X196672226Y-101046615D01*
X196639566Y-101035603D01*
X196639564Y-101035602D01*
X196639559Y-101035601D01*
X196637295Y-101035155D01*
X196617134Y-101031706D01*
X196614797Y-101031366D01*
X196611613Y-101031322D01*
X196564437Y-101030679D01*
X196558304Y-101030443D01*
X196508046Y-101027252D01*
X196505730Y-101027409D01*
X196485330Y-101029299D01*
X196483020Y-101029572D01*
X196434226Y-101041936D01*
X196428209Y-101043302D01*
X196378847Y-101053226D01*
X196376699Y-101053960D01*
X196357450Y-101061077D01*
X196355276Y-101061944D01*
X196311351Y-101086511D01*
X196305901Y-101089384D01*
X196273991Y-101105203D01*
X196260773Y-101111756D01*
X196260772Y-101111757D01*
X196258855Y-101113043D01*
X196242102Y-101124902D01*
X196240264Y-101126273D01*
X196204200Y-101161368D01*
X196199673Y-101165558D01*
X196161872Y-101198846D01*
X196160351Y-101200588D01*
X196147259Y-101216355D01*
X196145814Y-101218186D01*
X196125610Y-101252106D01*
X196074391Y-101299628D01*
X196005610Y-101311916D01*
X195957276Y-101296151D01*
X195556667Y-101065849D01*
X195556150Y-101065550D01*
X195345377Y-100943025D01*
X195183136Y-100848712D01*
X195164261Y-100835229D01*
X195158817Y-100830512D01*
X195158815Y-100830511D01*
X195158814Y-100830510D01*
X195120442Y-100811871D01*
X195112307Y-100807539D01*
X195096138Y-100798140D01*
X195075431Y-100786102D01*
X195068482Y-100784218D01*
X195046762Y-100776080D01*
X195040284Y-100772933D01*
X195040279Y-100772931D01*
X195040278Y-100772931D01*
X194998393Y-100764858D01*
X194989417Y-100762780D01*
X194967655Y-100756880D01*
X194948238Y-100751615D01*
X194941037Y-100751594D01*
X194917952Y-100749356D01*
X194910875Y-100747992D01*
X194868328Y-100751036D01*
X194859113Y-100751351D01*
X194816462Y-100751224D01*
X194816455Y-100751225D01*
X194809484Y-100753070D01*
X194786625Y-100756880D01*
X194779428Y-100757395D01*
X194739123Y-100771345D01*
X194730311Y-100774032D01*
X194689066Y-100784954D01*
X194689060Y-100784956D01*
X194682810Y-100788540D01*
X194661706Y-100798140D01*
X194654893Y-100800498D01*
X194619563Y-100824410D01*
X194611748Y-100829286D01*
X194574738Y-100850509D01*
X194574737Y-100850510D01*
X194569625Y-100855592D01*
X194551720Y-100870330D01*
X194545760Y-100874363D01*
X194545755Y-100874368D01*
X194541689Y-100879061D01*
X194482909Y-100916834D01*
X194413039Y-100916831D01*
X194404303Y-100913908D01*
X194142917Y-100815537D01*
X194112099Y-100798613D01*
X190985277Y-98448844D01*
X191810000Y-98448844D01*
X191816401Y-98508372D01*
X191816403Y-98508379D01*
X191866645Y-98643086D01*
X191866649Y-98643093D01*
X191952809Y-98758187D01*
X191952812Y-98758190D01*
X192067906Y-98844350D01*
X192067913Y-98844354D01*
X192202620Y-98894596D01*
X192202627Y-98894598D01*
X192262155Y-98900999D01*
X192262172Y-98901000D01*
X194060000Y-98901000D01*
X194560000Y-98901000D01*
X196357828Y-98901000D01*
X196357844Y-98900999D01*
X196417372Y-98894598D01*
X196417379Y-98894596D01*
X196552086Y-98844354D01*
X196552093Y-98844350D01*
X196667187Y-98758190D01*
X196667190Y-98758187D01*
X196753350Y-98643093D01*
X196753354Y-98643086D01*
X196803596Y-98508379D01*
X196803598Y-98508372D01*
X196809999Y-98448844D01*
X196810000Y-98448827D01*
X196810000Y-97151000D01*
X194560000Y-97151000D01*
X194560000Y-98901000D01*
X194060000Y-98901000D01*
X194060000Y-97151000D01*
X191810000Y-97151000D01*
X191810000Y-98448844D01*
X190985277Y-98448844D01*
X190245404Y-97892838D01*
X190233797Y-97882942D01*
X189586106Y-97257981D01*
X189570958Y-97240334D01*
X189566882Y-97234569D01*
X189566878Y-97234565D01*
X189533981Y-97207215D01*
X189527154Y-97201098D01*
X189496359Y-97171384D01*
X189496353Y-97171380D01*
X189490167Y-97167954D01*
X189470978Y-97154835D01*
X189465545Y-97150318D01*
X189465541Y-97150316D01*
X189426679Y-97132408D01*
X189418505Y-97128269D01*
X189381068Y-97107538D01*
X189381059Y-97107535D01*
X189374199Y-97105827D01*
X189352271Y-97098123D01*
X189345852Y-97095165D01*
X189303679Y-97087926D01*
X189294711Y-97086043D01*
X189253193Y-97075709D01*
X189253180Y-97075708D01*
X189246110Y-97075834D01*
X189222942Y-97074069D01*
X189215966Y-97072872D01*
X189173358Y-97076794D01*
X189164212Y-97077296D01*
X189121426Y-97078061D01*
X189121420Y-97078062D01*
X189114619Y-97080015D01*
X189091773Y-97084307D01*
X188496490Y-97139118D01*
X188485335Y-97139640D01*
X188447599Y-97139705D01*
X188447596Y-97139705D01*
X188435855Y-97142872D01*
X188414942Y-97146627D01*
X188402830Y-97147742D01*
X188402827Y-97147743D01*
X188367434Y-97160807D01*
X188356793Y-97164199D01*
X182851613Y-98649241D01*
X182832087Y-98652861D01*
X182816457Y-98654478D01*
X182816452Y-98654480D01*
X182784500Y-98666685D01*
X182772551Y-98670568D01*
X182739542Y-98679472D01*
X182739539Y-98679474D01*
X182725946Y-98687352D01*
X182708025Y-98695900D01*
X182693351Y-98701506D01*
X182693346Y-98701508D01*
X182665650Y-98721561D01*
X182655116Y-98728402D01*
X182625522Y-98745555D01*
X182625517Y-98745559D01*
X182614428Y-98756686D01*
X182599323Y-98769587D01*
X180619384Y-100203186D01*
X180616576Y-100204958D01*
X180559309Y-100246683D01*
X180559013Y-100246898D01*
X180506200Y-100285138D01*
X180505900Y-100285425D01*
X180505553Y-100285755D01*
X180505147Y-100286138D01*
X180464424Y-100336567D01*
X180464192Y-100336853D01*
X180419276Y-100392136D01*
X180417358Y-100394848D01*
X178497827Y-102771846D01*
X178440393Y-102811636D01*
X178370566Y-102814058D01*
X178310513Y-102778344D01*
X178279565Y-102717245D01*
X178257873Y-102603874D01*
X178256007Y-102589761D01*
X178238217Y-102349684D01*
X178238746Y-102325876D01*
X178239412Y-102320289D01*
X178233090Y-102276486D01*
X178232161Y-102267966D01*
X178228894Y-102223865D01*
X178227043Y-102218561D01*
X178221391Y-102195416D01*
X178220589Y-102189856D01*
X178203147Y-102149185D01*
X178200053Y-102141220D01*
X178185473Y-102099439D01*
X178182312Y-102094794D01*
X178170860Y-102073899D01*
X178168648Y-102068740D01*
X178141280Y-102033976D01*
X178136224Y-102027074D01*
X178111328Y-101990493D01*
X178111324Y-101990490D01*
X178111324Y-101990489D01*
X178107076Y-101986827D01*
X178090602Y-101969603D01*
X178087132Y-101965194D01*
X178087130Y-101965193D01*
X178072327Y-101954124D01*
X178051696Y-101938696D01*
X178045014Y-101933329D01*
X178011510Y-101904448D01*
X178006447Y-101902004D01*
X177986089Y-101889638D01*
X177981588Y-101886272D01*
X177981589Y-101886272D01*
X177940525Y-101869858D01*
X177932657Y-101866392D01*
X177892825Y-101847169D01*
X177892818Y-101847166D01*
X177887293Y-101846116D01*
X177864439Y-101839444D01*
X177859223Y-101837359D01*
X177843515Y-101835489D01*
X177815291Y-101832129D01*
X177806818Y-101830820D01*
X177792498Y-101828099D01*
X177763362Y-101822561D01*
X177763359Y-101822561D01*
X177757743Y-101822976D01*
X177733948Y-101822447D01*
X177728359Y-101821782D01*
X177728357Y-101821782D01*
X177728355Y-101821782D01*
X177684572Y-101828099D01*
X177676034Y-101829031D01*
X177631933Y-101832300D01*
X177631931Y-101832300D01*
X177626629Y-101834151D01*
X177603498Y-101839800D01*
X177602201Y-101839987D01*
X177597923Y-101840605D01*
X177557270Y-101858039D01*
X177549258Y-101861151D01*
X177507510Y-101875720D01*
X177507504Y-101875723D01*
X177502859Y-101878885D01*
X177481980Y-101890328D01*
X177476808Y-101892546D01*
X177442052Y-101919907D01*
X177435123Y-101924983D01*
X177398563Y-101949866D01*
X177398559Y-101949869D01*
X177394892Y-101954124D01*
X177377679Y-101970586D01*
X176867984Y-102371849D01*
X176851761Y-102382669D01*
X174253398Y-103834385D01*
X174205736Y-103849471D01*
X173974802Y-103873471D01*
X173906087Y-103860821D01*
X173855119Y-103813030D01*
X173838079Y-103745270D01*
X173846683Y-103704509D01*
X174898368Y-101046943D01*
X174906146Y-101032191D01*
X174906117Y-101032177D01*
X174909742Y-101024905D01*
X174909743Y-101024901D01*
X174909745Y-101024899D01*
X174926615Y-100975900D01*
X174928538Y-100970702D01*
X174947596Y-100922547D01*
X174947596Y-100922539D01*
X174949574Y-100914663D01*
X174949608Y-100914671D01*
X174951064Y-100908263D01*
X174951029Y-100908256D01*
X174952647Y-100900303D01*
X174952650Y-100900295D01*
X174956263Y-100848615D01*
X174956781Y-100843040D01*
X174957764Y-100834538D01*
X174962721Y-100791633D01*
X174962592Y-100783506D01*
X174962625Y-100783505D01*
X174962373Y-100776939D01*
X174962340Y-100776942D01*
X174961843Y-100768836D01*
X174961844Y-100768831D01*
X174951961Y-100717987D01*
X174951020Y-100712490D01*
X174943448Y-100661267D01*
X174943447Y-100661265D01*
X174943447Y-100661263D01*
X174941220Y-100653450D01*
X174941252Y-100653440D01*
X174939308Y-100647162D01*
X174939276Y-100647173D01*
X174936696Y-100639460D01*
X174913992Y-100592911D01*
X174911648Y-100587817D01*
X174891089Y-100540328D01*
X174886916Y-100533359D01*
X174886944Y-100533341D01*
X174883444Y-100527783D01*
X174883417Y-100527802D01*
X174878930Y-100521023D01*
X174844945Y-100481927D01*
X174841398Y-100477656D01*
X174809215Y-100437065D01*
X174809210Y-100437061D01*
X174803380Y-100431413D01*
X174803402Y-100431389D01*
X174798577Y-100426921D01*
X174798556Y-100426946D01*
X174792470Y-100421561D01*
X174752866Y-100394848D01*
X174749527Y-100392595D01*
X174744965Y-100389366D01*
X174703403Y-100358510D01*
X174696305Y-100354562D01*
X174696321Y-100354532D01*
X174690502Y-100351465D01*
X174690488Y-100351494D01*
X174683219Y-100347869D01*
X174634250Y-100331008D01*
X174629012Y-100329071D01*
X174580864Y-100310018D01*
X174580863Y-100310017D01*
X174580861Y-100310017D01*
X174572975Y-100308038D01*
X174572982Y-100308006D01*
X174566579Y-100306551D01*
X174566573Y-100306584D01*
X174558611Y-100304963D01*
X174506951Y-100301350D01*
X174501375Y-100300833D01*
X174449946Y-100294892D01*
X174441825Y-100295021D01*
X174441824Y-100294989D01*
X174435261Y-100295242D01*
X174435263Y-100295273D01*
X174427154Y-100295769D01*
X174376288Y-100305655D01*
X174370770Y-100306598D01*
X174319588Y-100314165D01*
X174311772Y-100316394D01*
X174311762Y-100316362D01*
X174305483Y-100318306D01*
X174305494Y-100318337D01*
X174297789Y-100320914D01*
X174297787Y-100320915D01*
X174297784Y-100320916D01*
X174297782Y-100320917D01*
X174251243Y-100343614D01*
X174246158Y-100345954D01*
X174198646Y-100366525D01*
X174191675Y-100370699D01*
X174191659Y-100370672D01*
X174186099Y-100374174D01*
X174186117Y-100374200D01*
X174179341Y-100378685D01*
X174140268Y-100412649D01*
X174135961Y-100416225D01*
X174095382Y-100448399D01*
X174089731Y-100454233D01*
X174089708Y-100454210D01*
X174078370Y-100466454D01*
X172833253Y-101548808D01*
X172822160Y-101557360D01*
X172775969Y-101598590D01*
X172774751Y-101599662D01*
X172727822Y-101640458D01*
X172717918Y-101650405D01*
X172489840Y-101853984D01*
X172426718Y-101883940D01*
X172357421Y-101875015D01*
X172303950Y-101830041D01*
X172283281Y-101763298D01*
X172286072Y-101735254D01*
X172715291Y-99751875D01*
X172718492Y-99739987D01*
X172941633Y-99049973D01*
X172952034Y-99026472D01*
X172952452Y-99025744D01*
X172964978Y-98978372D01*
X172966856Y-98971979D01*
X172981922Y-98925393D01*
X172981965Y-98924550D01*
X172985926Y-98899159D01*
X172986143Y-98898339D01*
X172985982Y-98849381D01*
X172986142Y-98842659D01*
X172988636Y-98793780D01*
X172988458Y-98792952D01*
X172985714Y-98767403D01*
X172985711Y-98766558D01*
X172985711Y-98766556D01*
X172972883Y-98719300D01*
X172971298Y-98712764D01*
X172967689Y-98695900D01*
X172961058Y-98664915D01*
X172960676Y-98664169D01*
X172951406Y-98640185D01*
X172951186Y-98639375D01*
X172951186Y-98639374D01*
X172937179Y-98615297D01*
X172926568Y-98597055D01*
X172923351Y-98591164D01*
X172901066Y-98547576D01*
X172901064Y-98547574D01*
X172900497Y-98546946D01*
X172885350Y-98526200D01*
X172884920Y-98525460D01*
X172863426Y-98504108D01*
X172850176Y-98490945D01*
X172845557Y-98486100D01*
X172812750Y-98449765D01*
X172812749Y-98449764D01*
X172812038Y-98449304D01*
X172792032Y-98433180D01*
X172791432Y-98432584D01*
X172791431Y-98432583D01*
X172753305Y-98410737D01*
X172748956Y-98408245D01*
X172743217Y-98404746D01*
X172702126Y-98378143D01*
X172702124Y-98378142D01*
X172701644Y-98377987D01*
X172701306Y-98377878D01*
X172677825Y-98367488D01*
X172677089Y-98367066D01*
X172677083Y-98367064D01*
X172629748Y-98354545D01*
X172623299Y-98352651D01*
X172576738Y-98337594D01*
X172576732Y-98337593D01*
X172575870Y-98337549D01*
X172550516Y-98333593D01*
X172549681Y-98333372D01*
X172500734Y-98333532D01*
X172494015Y-98333372D01*
X172445121Y-98330878D01*
X172444279Y-98331059D01*
X172418753Y-98333802D01*
X172417898Y-98333804D01*
X172417895Y-98333805D01*
X172370656Y-98346627D01*
X172364130Y-98348210D01*
X172316262Y-98358456D01*
X172316254Y-98358459D01*
X172315490Y-98358850D01*
X172291540Y-98368106D01*
X172125941Y-98413060D01*
X172109235Y-98416383D01*
X168294742Y-98905777D01*
X168266161Y-98906123D01*
X165943899Y-98665106D01*
X165879250Y-98638606D01*
X165839191Y-98581360D01*
X165836440Y-98511545D01*
X165871870Y-98451325D01*
X165883939Y-98441359D01*
X167886908Y-96990190D01*
X167889166Y-96988595D01*
X167937418Y-96955354D01*
X167937427Y-96955343D01*
X167941868Y-96951335D01*
X167946207Y-96947229D01*
X167946212Y-96947226D01*
X167983122Y-96901768D01*
X167984910Y-96899618D01*
X170115141Y-94399746D01*
X170127464Y-94387208D01*
X170143576Y-94372989D01*
X170159299Y-94349296D01*
X170168229Y-94337447D01*
X170186676Y-94315800D01*
X170195902Y-94296398D01*
X170204562Y-94281092D01*
X170588257Y-93702930D01*
X170594219Y-93694703D01*
X170619145Y-93663115D01*
X170622952Y-93654264D01*
X170633545Y-93634689D01*
X170638874Y-93626661D01*
X170651691Y-93588507D01*
X170655308Y-93579044D01*
X170671221Y-93542056D01*
X170672608Y-93532513D01*
X170677773Y-93510874D01*
X170680843Y-93501738D01*
X170683347Y-93461594D01*
X170684397Y-93451467D01*
X170686785Y-93435051D01*
X170690190Y-93411644D01*
X170689060Y-93402067D01*
X170688448Y-93379833D01*
X170689049Y-93370210D01*
X170681075Y-93330770D01*
X170679472Y-93320740D01*
X170674760Y-93280767D01*
X170671190Y-93271807D01*
X170664844Y-93250488D01*
X170662933Y-93241037D01*
X170645029Y-93205019D01*
X170640873Y-93195720D01*
X170625981Y-93158342D01*
X170620216Y-93150614D01*
X170608569Y-93131665D01*
X170604276Y-93123030D01*
X170604276Y-93123029D01*
X170591336Y-93108368D01*
X170577652Y-93092861D01*
X170571234Y-93084957D01*
X170557493Y-93066538D01*
X170547180Y-93052714D01*
X170539606Y-93046738D01*
X170523455Y-93031452D01*
X170517074Y-93024222D01*
X170483553Y-93001976D01*
X170475311Y-92996005D01*
X170465937Y-92988608D01*
X170443724Y-92971080D01*
X170439123Y-92969101D01*
X170434861Y-92967267D01*
X170415302Y-92956681D01*
X170407269Y-92951350D01*
X170369135Y-92938538D01*
X170359628Y-92934903D01*
X169408104Y-92525588D01*
X169402997Y-92523252D01*
X167787094Y-91739619D01*
X167769846Y-91729460D01*
X167750852Y-91716096D01*
X167261766Y-91371971D01*
X166558159Y-90876907D01*
X166514659Y-90822230D01*
X166507624Y-90752716D01*
X166539289Y-90690433D01*
X166599599Y-90655157D01*
X166616585Y-90652170D01*
X166654358Y-90648213D01*
X166665428Y-90643967D01*
X166685965Y-90638062D01*
X170526844Y-89885073D01*
X170537112Y-89883505D01*
X170576523Y-89879171D01*
X170586064Y-89875455D01*
X170607208Y-89869318D01*
X170617256Y-89867349D01*
X170652872Y-89849906D01*
X170662381Y-89845735D01*
X171450345Y-89538891D01*
X171453271Y-89537796D01*
X171507692Y-89518218D01*
X171507700Y-89518211D01*
X171513499Y-89515221D01*
X171519264Y-89512054D01*
X171519271Y-89512052D01*
X171565935Y-89477802D01*
X171568372Y-89476061D01*
X171615922Y-89443029D01*
X171615924Y-89443026D01*
X171615926Y-89443025D01*
X171620782Y-89438608D01*
X171625506Y-89434081D01*
X171625511Y-89434078D01*
X171656709Y-89395167D01*
X171661652Y-89389003D01*
X171663674Y-89386545D01*
X171701005Y-89342392D01*
X171701006Y-89342388D01*
X171701008Y-89342387D01*
X171704533Y-89336899D01*
X171707946Y-89331269D01*
X171707946Y-89331266D01*
X171707950Y-89331263D01*
X171731221Y-89278304D01*
X171732532Y-89275428D01*
X171738758Y-89262207D01*
X171757142Y-89223162D01*
X171757143Y-89223154D01*
X171759135Y-89216917D01*
X171760968Y-89210618D01*
X171760970Y-89210615D01*
X171769739Y-89153457D01*
X171770257Y-89150353D01*
X171780506Y-89093466D01*
X171780506Y-89093462D01*
X171780816Y-89086910D01*
X171780957Y-89080360D01*
X171780956Y-89080357D01*
X171780957Y-89080355D01*
X171774629Y-89022833D01*
X171774333Y-89019773D01*
X171769507Y-88962141D01*
X171769505Y-88962135D01*
X171769505Y-88962134D01*
X171768116Y-88955757D01*
X171766549Y-88949363D01*
X171766549Y-88949361D01*
X171745563Y-88895471D01*
X171744476Y-88892569D01*
X171724894Y-88838138D01*
X171721898Y-88832332D01*
X171718726Y-88826556D01*
X171684532Y-88779967D01*
X171682690Y-88777389D01*
X171649705Y-88729908D01*
X171649702Y-88729906D01*
X171649702Y-88729905D01*
X171645268Y-88725030D01*
X171640758Y-88720323D01*
X171640755Y-88720320D01*
X171640754Y-88720319D01*
X171595614Y-88684124D01*
X171593169Y-88682110D01*
X170398745Y-87672303D01*
X170391887Y-87666051D01*
X167597596Y-84919979D01*
X166823724Y-84159461D01*
X166807517Y-84139880D01*
X166590804Y-83815321D01*
X166569948Y-83748640D01*
X166588454Y-83681266D01*
X166640448Y-83634592D01*
X166703832Y-83622862D01*
X173306879Y-84151955D01*
X173316305Y-84153076D01*
X173357742Y-84159620D01*
X173365613Y-84158788D01*
X173388530Y-84158499D01*
X173396428Y-84159132D01*
X173437696Y-84151543D01*
X173447053Y-84150190D01*
X173991837Y-84092676D01*
X174010296Y-84092112D01*
X174029519Y-84092958D01*
X174059479Y-84086325D01*
X174073248Y-84084082D01*
X174103756Y-84080862D01*
X174121716Y-84073957D01*
X174139400Y-84068634D01*
X174158188Y-84064476D01*
X174185412Y-84050314D01*
X174198133Y-84044583D01*
X174226765Y-84033578D01*
X174242323Y-84022262D01*
X174258038Y-84012537D01*
X174258448Y-84012323D01*
X174275101Y-84003662D01*
X174297743Y-83982926D01*
X174308514Y-83974125D01*
X174333345Y-83956068D01*
X174345445Y-83941109D01*
X174358099Y-83927656D01*
X174372291Y-83914661D01*
X174388783Y-83888790D01*
X174396941Y-83877457D01*
X174416232Y-83853614D01*
X174424046Y-83836038D01*
X174432789Y-83819764D01*
X174443135Y-83803538D01*
X174452370Y-83774277D01*
X174457317Y-83761221D01*
X174469776Y-83733204D01*
X174469776Y-83733203D01*
X174469778Y-83733199D01*
X174472778Y-83714195D01*
X174477012Y-83696212D01*
X174481730Y-83681266D01*
X174482803Y-83677867D01*
X174484151Y-83647209D01*
X174485546Y-83633338D01*
X174490333Y-83603027D01*
X174488312Y-83583892D01*
X174487748Y-83565427D01*
X174488594Y-83546209D01*
X174481961Y-83516249D01*
X174479716Y-83502464D01*
X174476498Y-83471973D01*
X174476498Y-83471972D01*
X174469593Y-83454010D01*
X174464269Y-83436322D01*
X174463264Y-83431780D01*
X174460112Y-83417540D01*
X174445951Y-83390317D01*
X174440218Y-83377591D01*
X174429214Y-83348962D01*
X174429210Y-83348956D01*
X174417900Y-83333404D01*
X174408175Y-83317691D01*
X174399301Y-83300630D01*
X174399297Y-83300625D01*
X174378578Y-83277999D01*
X174369744Y-83267189D01*
X174351704Y-83242383D01*
X174351701Y-83242381D01*
X174351701Y-83242380D01*
X174336744Y-83230279D01*
X174323290Y-83217624D01*
X173944009Y-82803446D01*
X173937816Y-82796135D01*
X173857854Y-82693985D01*
X168152073Y-75404952D01*
X168126251Y-75340031D01*
X168139628Y-75271454D01*
X168187957Y-75220995D01*
X168255894Y-75204675D01*
X168287509Y-75210421D01*
G37*
%TD.AperFunction*%
%TA.AperFunction,Conductor*%
G36*
X187105848Y-85516915D02*
G01*
X187335988Y-85648810D01*
X187384362Y-85699219D01*
X187394229Y-85732728D01*
X187395705Y-85732406D01*
X187397315Y-85739781D01*
X187441544Y-85866178D01*
X187441545Y-85866180D01*
X187521069Y-85973930D01*
X187628818Y-86053453D01*
X187628821Y-86053455D01*
X187743736Y-86093665D01*
X187800510Y-86134386D01*
X187803275Y-86138065D01*
X187895384Y-86265494D01*
X188443496Y-87023784D01*
X188466815Y-87089645D01*
X188467000Y-87096422D01*
X188467000Y-88309269D01*
X188469853Y-88339699D01*
X188469853Y-88339701D01*
X188514706Y-88467880D01*
X188519051Y-88476101D01*
X188517609Y-88476862D01*
X188537929Y-88532501D01*
X188522610Y-88600670D01*
X188472868Y-88649736D01*
X188414187Y-88664500D01*
X187443629Y-88664500D01*
X187376590Y-88644815D01*
X187330835Y-88592011D01*
X187320891Y-88522853D01*
X187325923Y-88501496D01*
X187357005Y-88407697D01*
X187357006Y-88407690D01*
X187367499Y-88304986D01*
X187367500Y-88304973D01*
X187367500Y-87880000D01*
X185242501Y-87880000D01*
X185242501Y-88304986D01*
X185252994Y-88407697D01*
X185284076Y-88501496D01*
X185286478Y-88571324D01*
X185250746Y-88631366D01*
X185188226Y-88662559D01*
X185166370Y-88664500D01*
X181599500Y-88664500D01*
X181532461Y-88644815D01*
X181486706Y-88592011D01*
X181475500Y-88540500D01*
X181475500Y-88106739D01*
X181465573Y-88038608D01*
X181465573Y-88038607D01*
X181414198Y-87933517D01*
X181414196Y-87933515D01*
X181414196Y-87933514D01*
X181331485Y-87850803D01*
X181226391Y-87799426D01*
X181158261Y-87789500D01*
X181158260Y-87789500D01*
X180791740Y-87789500D01*
X180791739Y-87789500D01*
X180723608Y-87799426D01*
X180618514Y-87850803D01*
X180535803Y-87933514D01*
X180484426Y-88038608D01*
X180474500Y-88106739D01*
X180474500Y-89334719D01*
X180454815Y-89401758D01*
X180438181Y-89422400D01*
X180417181Y-89443400D01*
X180355858Y-89476885D01*
X180286166Y-89471901D01*
X180230233Y-89430029D01*
X180205816Y-89364565D01*
X180205500Y-89355719D01*
X180205500Y-88106739D01*
X180195573Y-88038608D01*
X180195573Y-88038607D01*
X180144198Y-87933517D01*
X180144196Y-87933515D01*
X180144196Y-87933514D01*
X180061483Y-87850801D01*
X180057445Y-87847918D01*
X180014324Y-87792942D01*
X180005500Y-87747002D01*
X180005500Y-87170833D01*
X180025185Y-87103794D01*
X180041819Y-87083152D01*
X180169958Y-86955013D01*
X185242500Y-86955013D01*
X185242500Y-87380000D01*
X186055000Y-87380000D01*
X186555000Y-87380000D01*
X187367499Y-87380000D01*
X187367499Y-86955028D01*
X187367498Y-86955013D01*
X187357005Y-86852302D01*
X187301858Y-86685880D01*
X187301856Y-86685875D01*
X187209815Y-86536654D01*
X187085845Y-86412684D01*
X186936624Y-86320643D01*
X186936619Y-86320641D01*
X186770197Y-86265494D01*
X186770190Y-86265493D01*
X186667486Y-86255000D01*
X186555000Y-86255000D01*
X186555000Y-87380000D01*
X186055000Y-87380000D01*
X186055000Y-86255000D01*
X185942527Y-86255000D01*
X185942512Y-86255001D01*
X185839802Y-86265494D01*
X185673380Y-86320641D01*
X185673375Y-86320643D01*
X185524154Y-86412684D01*
X185400184Y-86536654D01*
X185308143Y-86685875D01*
X185308141Y-86685880D01*
X185252994Y-86852302D01*
X185252993Y-86852309D01*
X185242500Y-86955013D01*
X180169958Y-86955013D01*
X181588152Y-85536819D01*
X181649475Y-85503334D01*
X181675833Y-85500500D01*
X187044193Y-85500500D01*
X187105848Y-85516915D01*
G37*
%TD.AperFunction*%
%TD*%
M02*
