%TF.GenerationSoftware,KiCad,Pcbnew,8.0.7*%
%TF.CreationDate,2025-02-12T01:29:36+05:30*%
%TF.ProjectId,MyNEW_PCB_ART_SJCET,4d794e45-575f-4504-9342-5f4152545f53,rev?*%
%TF.SameCoordinates,Original*%
%TF.FileFunction,Legend,Top*%
%TF.FilePolarity,Positive*%
%FSLAX46Y46*%
G04 Gerber Fmt 4.6, Leading zero omitted, Abs format (unit mm)*
G04 Created by KiCad (PCBNEW 8.0.7) date 2025-02-12 01:29:36*
%MOMM*%
%LPD*%
G01*
G04 APERTURE LIST*
%ADD10C,0.000000*%
G04 APERTURE END LIST*
D10*
%TO.C,*%
G36*
X166957260Y-73701771D02*
G01*
X167845329Y-73964766D01*
X169029500Y-74358561D01*
X170407534Y-74846722D01*
X171877194Y-75392813D01*
X173336240Y-75960402D01*
X174682435Y-76513053D01*
X174966932Y-76634904D01*
X175922851Y-77046443D01*
X176705786Y-77380352D01*
X177165286Y-77572522D01*
X177196187Y-77584836D01*
X177453115Y-77468102D01*
X177533953Y-76877472D01*
X177560714Y-76349504D01*
X177705357Y-76126039D01*
X178064421Y-76205460D01*
X178734449Y-76586149D01*
X179155230Y-76850311D01*
X181595621Y-78265954D01*
X184180377Y-79493034D01*
X187106916Y-80625212D01*
X187126506Y-80632120D01*
X188875958Y-81260180D01*
X190203899Y-81778422D01*
X191203116Y-82243035D01*
X191966395Y-82710214D01*
X192586522Y-83236149D01*
X193156281Y-83877032D01*
X193723741Y-84627471D01*
X194937493Y-86069482D01*
X196175694Y-87046153D01*
X197538659Y-87627222D01*
X198267760Y-87786273D01*
X199110269Y-88031850D01*
X200160530Y-88494902D01*
X201316084Y-89110229D01*
X202474470Y-89812630D01*
X203533229Y-90536904D01*
X204389901Y-91217850D01*
X204942027Y-91790268D01*
X205095655Y-92131243D01*
X204880492Y-92533699D01*
X204275049Y-93179344D01*
X203339397Y-94012629D01*
X202133607Y-94978008D01*
X201508266Y-95448562D01*
X200611041Y-96192488D01*
X200008629Y-96942548D01*
X199646272Y-97831759D01*
X199469210Y-98993140D01*
X199422694Y-100514697D01*
X199400497Y-101482629D01*
X199343536Y-102223303D01*
X199263823Y-102584975D01*
X199258297Y-102591595D01*
X198915467Y-102624886D01*
X198385725Y-102484665D01*
X197787452Y-102351825D01*
X197581721Y-102497812D01*
X197303222Y-102572570D01*
X196687879Y-102352235D01*
X196495250Y-102254773D01*
X195670497Y-101875193D01*
X194907632Y-101612975D01*
X194791568Y-101586116D01*
X194287005Y-101370060D01*
X193478480Y-100897256D01*
X192488261Y-100243197D01*
X191684121Y-99667422D01*
X190635528Y-98902569D01*
X189815643Y-98385757D01*
X189096872Y-98102810D01*
X188351620Y-98039554D01*
X187452290Y-98181813D01*
X186271288Y-98515412D01*
X184995366Y-98924333D01*
X184048597Y-99246831D01*
X183317154Y-99560541D01*
X182675488Y-99951054D01*
X181998050Y-100503958D01*
X181159293Y-101304843D01*
X180432644Y-102034851D01*
X179310767Y-103134456D01*
X178496934Y-103839330D01*
X177954351Y-104170849D01*
X177646222Y-104150390D01*
X177535751Y-103799327D01*
X177533953Y-103718785D01*
X177480775Y-103442870D01*
X177261751Y-103367009D01*
X176787647Y-103509166D01*
X175969231Y-103887304D01*
X175477760Y-104132717D01*
X174429718Y-104622259D01*
X173500139Y-104985987D01*
X172797298Y-105188398D01*
X172429471Y-105193991D01*
X172399911Y-105141921D01*
X172504766Y-104841654D01*
X172776286Y-104205669D01*
X173064318Y-103570297D01*
X173402655Y-102785697D01*
X173599172Y-102220712D01*
X173618647Y-102026163D01*
X173367344Y-102117588D01*
X172848319Y-102472838D01*
X172487354Y-102757855D01*
X171844573Y-103249137D01*
X171357683Y-103552420D01*
X171219000Y-103599626D01*
X171125421Y-103358782D01*
X171108722Y-102739460D01*
X171158279Y-101896478D01*
X171263472Y-100984654D01*
X171413678Y-100158804D01*
X171470461Y-99934579D01*
X171523060Y-99657709D01*
X171419032Y-99510227D01*
X171055895Y-99475967D01*
X170331168Y-99538763D01*
X169552305Y-99632000D01*
X168302701Y-99719020D01*
X166972214Y-99703248D01*
X165699307Y-99598529D01*
X164622440Y-99418705D01*
X163880077Y-99177619D01*
X163684346Y-99045338D01*
X163703216Y-98938565D01*
X164294072Y-98938565D01*
X165138215Y-99107393D01*
X166367882Y-99245703D01*
X167884310Y-99260973D01*
X169449123Y-99157813D01*
X170522847Y-99003273D01*
X171360878Y-98887231D01*
X171976019Y-98880796D01*
X172173179Y-98941405D01*
X172228185Y-99304436D01*
X172125847Y-99982376D01*
X172026601Y-100362758D01*
X171654809Y-101634135D01*
X171451050Y-102433415D01*
X171432486Y-102807439D01*
X171616282Y-102803049D01*
X172019598Y-102467088D01*
X172593800Y-101910796D01*
X173499709Y-101085387D01*
X174102241Y-100689714D01*
X174420164Y-100719601D01*
X174472247Y-101170871D01*
X174415000Y-101505477D01*
X174159405Y-102345617D01*
X173779655Y-103260827D01*
X173717999Y-103386202D01*
X173345092Y-104151548D01*
X173229025Y-104560446D01*
X173426805Y-104640869D01*
X173995441Y-104420788D01*
X174908362Y-103970291D01*
X175828378Y-103481680D01*
X176659148Y-102998800D01*
X177028294Y-102759280D01*
X177738592Y-102258456D01*
X177907546Y-103103226D01*
X178076500Y-103947996D01*
X178860012Y-102866388D01*
X180511017Y-100949459D01*
X182344655Y-99518782D01*
X183367188Y-98963158D01*
X184432986Y-98531415D01*
X185733429Y-98108114D01*
X187083789Y-97743298D01*
X188299340Y-97487010D01*
X189176371Y-97389424D01*
X189576751Y-97548255D01*
X190259719Y-97974270D01*
X191096084Y-98584656D01*
X191334588Y-98772850D01*
X192792527Y-99909198D01*
X193896060Y-100688740D01*
X194678671Y-101130968D01*
X195173845Y-101255374D01*
X195389379Y-101133112D01*
X195632663Y-100974112D01*
X196032444Y-101182594D01*
X196336575Y-101445005D01*
X196890223Y-101855847D01*
X197168166Y-101812695D01*
X197182626Y-101779703D01*
X197388084Y-101603249D01*
X197854861Y-101737965D01*
X198091303Y-101854196D01*
X198880762Y-102262441D01*
X198828697Y-100296459D01*
X198776633Y-98330477D01*
X198680697Y-100019307D01*
X198597372Y-100894327D01*
X198475022Y-101504665D01*
X198353978Y-101708137D01*
X198073319Y-101501472D01*
X197666442Y-100988966D01*
X197560785Y-100829945D01*
X197200894Y-100301223D01*
X197037799Y-100201876D01*
X196994632Y-100495270D01*
X196993825Y-100559733D01*
X196894159Y-101034468D01*
X196734382Y-101167711D01*
X196406154Y-100968836D01*
X196051232Y-100559733D01*
X195709513Y-100166916D01*
X195474796Y-100211186D01*
X195379729Y-100341710D01*
X195051560Y-100564294D01*
X194522598Y-100442816D01*
X193751590Y-99955018D01*
X192697282Y-99078643D01*
X192199528Y-98625915D01*
X191348812Y-97865206D01*
X190731190Y-97412163D01*
X190200974Y-97188988D01*
X189612477Y-97117880D01*
X189369273Y-97114520D01*
X188394761Y-97167373D01*
X187231962Y-97302271D01*
X186609257Y-97403317D01*
X185554858Y-97558254D01*
X184985259Y-97534003D01*
X184872263Y-97321359D01*
X185166295Y-96932330D01*
X185412414Y-96616779D01*
X185388871Y-96291877D01*
X185061497Y-95781569D01*
X184901880Y-95569870D01*
X184354627Y-94967438D01*
X183882878Y-94767383D01*
X183584629Y-94800873D01*
X182997833Y-94829891D01*
X182829349Y-94518667D01*
X183079162Y-93869102D01*
X183211809Y-93668113D01*
X185418106Y-93668113D01*
X185624536Y-94322136D01*
X186095385Y-94962639D01*
X186820646Y-95824563D01*
X188918058Y-95641603D01*
X190232831Y-95570905D01*
X191183537Y-95656137D01*
X191933954Y-95937298D01*
X192647859Y-96454386D01*
X192800975Y-96589910D01*
X193753665Y-97318044D01*
X194715276Y-97711475D01*
X195871667Y-97824279D01*
X196854166Y-97769212D01*
X197809615Y-97671315D01*
X198533292Y-97579939D01*
X198875936Y-97514061D01*
X198880762Y-97511554D01*
X199139381Y-97194449D01*
X199453630Y-96618741D01*
X199733526Y-95981880D01*
X199889084Y-95481317D01*
X199879177Y-95320736D01*
X199547268Y-95169718D01*
X198847480Y-94942155D01*
X198011820Y-94708925D01*
X197080649Y-94442121D01*
X196554840Y-94199980D01*
X196309864Y-93900977D01*
X196229531Y-93542135D01*
X196116768Y-93041816D01*
X195836490Y-92977654D01*
X195502365Y-93110830D01*
X195068420Y-93239972D01*
X194677535Y-93115090D01*
X194166344Y-92664744D01*
X193937879Y-92426673D01*
X192569628Y-91282166D01*
X191113417Y-90607985D01*
X189640953Y-90406764D01*
X188223941Y-90681134D01*
X186934089Y-91433729D01*
X186228105Y-92143581D01*
X185616775Y-92995459D01*
X185418106Y-93668113D01*
X183211809Y-93668113D01*
X183599154Y-93081199D01*
X184568667Y-91760458D01*
X183483225Y-91906046D01*
X182711645Y-91957758D01*
X182444194Y-91820413D01*
X182669968Y-91468651D01*
X183125218Y-91073622D01*
X184241556Y-90235419D01*
X185166947Y-89706816D01*
X186094854Y-89417561D01*
X187218742Y-89297400D01*
X188072251Y-89277208D01*
X189531088Y-89210366D01*
X190588825Y-89042575D01*
X191044592Y-88873030D01*
X192146078Y-88512951D01*
X193347140Y-88543250D01*
X194476546Y-88924004D01*
X195363065Y-89615289D01*
X195589991Y-89932841D01*
X195941477Y-90434198D01*
X196376889Y-90772251D01*
X197049397Y-91031391D01*
X198030627Y-91277536D01*
X199174313Y-91532355D01*
X199888314Y-91655606D01*
X200270127Y-91634623D01*
X200417251Y-91456742D01*
X200427182Y-91109298D01*
X200417803Y-90967454D01*
X200486354Y-90386545D01*
X200861202Y-90154906D01*
X200918899Y-90145362D01*
X201322363Y-90193384D01*
X201456009Y-90590980D01*
X201459324Y-90814104D01*
X201556307Y-91365334D01*
X201956721Y-91771458D01*
X202461081Y-92043641D01*
X203091536Y-92396860D01*
X203446059Y-92699538D01*
X203474379Y-92770536D01*
X203276477Y-93059719D01*
X202768295Y-93538813D01*
X202325975Y-93897342D01*
X201438599Y-94593677D01*
X200970006Y-94997792D01*
X200926534Y-95102863D01*
X201314523Y-94902063D01*
X201490853Y-94796481D01*
X202180480Y-94316138D01*
X202950327Y-93690032D01*
X203680324Y-93028535D01*
X204250400Y-92442019D01*
X204540483Y-92040854D01*
X204555230Y-91979654D01*
X204327572Y-91647416D01*
X203714903Y-91148375D01*
X202822679Y-90542666D01*
X201756356Y-89890425D01*
X200621389Y-89251789D01*
X199523236Y-88686893D01*
X198567352Y-88255874D01*
X197859193Y-88018867D01*
X197574418Y-87998870D01*
X197056816Y-87950635D01*
X196327712Y-87703745D01*
X196121846Y-87608967D01*
X195386063Y-87294918D01*
X194802786Y-87125974D01*
X194703229Y-87116647D01*
X194337205Y-86948924D01*
X194287145Y-86797720D01*
X194147763Y-86429787D01*
X193779684Y-85751668D01*
X193258006Y-84900130D01*
X193173278Y-84769164D01*
X192718865Y-84096156D01*
X192288649Y-83560659D01*
X191801841Y-83115878D01*
X191177650Y-82715014D01*
X190335288Y-82311271D01*
X189193964Y-81857852D01*
X187672888Y-81307960D01*
X186469875Y-80886258D01*
X184909250Y-80289727D01*
X183229803Y-79563382D01*
X181665978Y-78812430D01*
X180749741Y-78319321D01*
X179717413Y-77738761D01*
X178870461Y-77288610D01*
X178308775Y-77020302D01*
X178131771Y-76971312D01*
X178165496Y-77255048D01*
X178344592Y-77659201D01*
X178534449Y-78155407D01*
X178519232Y-78385270D01*
X178228559Y-78345388D01*
X177547888Y-78130254D01*
X176584380Y-77776495D01*
X175640372Y-77401268D01*
X174160234Y-76807338D01*
X172618514Y-76211181D01*
X171099832Y-75642990D01*
X169688810Y-75132959D01*
X168470067Y-74711280D01*
X167528225Y-74408147D01*
X166947902Y-74253753D01*
X166803725Y-74248294D01*
X166906987Y-74503844D01*
X167302370Y-75096546D01*
X167931855Y-75951894D01*
X168737425Y-76995385D01*
X169661060Y-78152512D01*
X170644742Y-79348770D01*
X171630453Y-80509654D01*
X172082117Y-81026594D01*
X172848380Y-81926094D01*
X173440846Y-82683218D01*
X173790566Y-83205789D01*
X173850676Y-83390955D01*
X173535068Y-83483038D01*
X172801431Y-83545846D01*
X171771336Y-83579923D01*
X170566355Y-83585814D01*
X169308061Y-83564061D01*
X168118027Y-83515209D01*
X167117824Y-83439801D01*
X166522783Y-83358183D01*
X165828747Y-83266755D01*
X165420254Y-83295748D01*
X165374379Y-83345342D01*
X165560541Y-83595612D01*
X166072785Y-84143464D01*
X166841752Y-84918128D01*
X167798082Y-85848834D01*
X168254269Y-86283780D01*
X169259228Y-87249427D01*
X170096210Y-88079207D01*
X170699364Y-88705781D01*
X171002840Y-89061814D01*
X171023950Y-89115958D01*
X170562319Y-89355805D01*
X169726574Y-89634086D01*
X168677072Y-89909258D01*
X167574173Y-90139773D01*
X166578235Y-90284085D01*
X166480659Y-90293035D01*
X165679679Y-90375827D01*
X165217698Y-90486809D01*
X165121988Y-90664685D01*
X165419820Y-90948160D01*
X166138467Y-91375941D01*
X167305203Y-91986733D01*
X167880066Y-92279100D01*
X168890580Y-92807570D01*
X169489240Y-93178285D01*
X169755201Y-93459254D01*
X169767619Y-93718486D01*
X169709183Y-93850665D01*
X169235985Y-94531277D01*
X168473806Y-95418608D01*
X167553467Y-96379048D01*
X166605790Y-97278983D01*
X165761594Y-97984803D01*
X165442204Y-98208670D01*
X164294072Y-98938565D01*
X163703216Y-98938565D01*
X163734560Y-98761211D01*
X164244954Y-98327978D01*
X164630388Y-98086098D01*
X165261469Y-97642238D01*
X166061236Y-96976816D01*
X166931588Y-96185340D01*
X167774421Y-95363313D01*
X168491633Y-94606243D01*
X168985121Y-94009633D01*
X169157358Y-93678986D01*
X168934191Y-93437024D01*
X168361638Y-93074817D01*
X167873847Y-92822247D01*
X166817253Y-92277291D01*
X165794821Y-91686772D01*
X164915862Y-91121411D01*
X164289685Y-90651928D01*
X164025601Y-90349047D01*
X164023315Y-90331032D01*
X164263507Y-90181061D01*
X164865265Y-90096145D01*
X165132716Y-90088988D01*
X165967185Y-90023286D01*
X167002940Y-89852049D01*
X168074537Y-89614077D01*
X169016532Y-89348171D01*
X169663478Y-89093134D01*
X169815928Y-88990649D01*
X169735646Y-88706496D01*
X169285267Y-88110345D01*
X168501597Y-87245854D01*
X167451566Y-86186103D01*
X166488945Y-85217918D01*
X165685659Y-84358130D01*
X165113747Y-83687790D01*
X164845244Y-83287947D01*
X164833953Y-83241007D01*
X164910314Y-83092340D01*
X165189019Y-82995178D01*
X165744506Y-82945065D01*
X166651210Y-82937544D01*
X167983569Y-82968157D01*
X168887145Y-82998297D01*
X170297043Y-83037746D01*
X171493700Y-83051163D01*
X172383845Y-83039098D01*
X172874214Y-83002104D01*
X172940336Y-82974294D01*
X172776251Y-82716468D01*
X172326785Y-82127832D01*
X171656120Y-81289721D01*
X170828441Y-80283469D01*
X170617137Y-80030255D01*
X169231137Y-78353313D01*
X168041801Y-76872951D01*
X167083247Y-75634011D01*
X166389592Y-74681338D01*
X165994953Y-74059774D01*
X165914804Y-73849448D01*
X166141875Y-73653064D01*
X166467531Y-73606009D01*
X166957260Y-73701771D01*
G37*
G36*
X188745209Y-85093234D02*
G01*
X189340564Y-85427988D01*
X189949808Y-85839037D01*
X190390431Y-86206214D01*
X190500821Y-86373562D01*
X190265349Y-86507142D01*
X189681522Y-86574333D01*
X189551733Y-86576222D01*
X188850191Y-86494076D01*
X188469109Y-86169644D01*
X188335776Y-85883099D01*
X188120900Y-85271815D01*
X188113411Y-85011945D01*
X188314985Y-84955164D01*
X188346253Y-84954945D01*
X188745209Y-85093234D01*
G37*
G36*
X168509466Y-75316207D02*
G01*
X169239334Y-75531798D01*
X170283368Y-75917310D01*
X171556127Y-76438548D01*
X172972172Y-77061316D01*
X174446065Y-77751417D01*
X175126158Y-78085150D01*
X176540938Y-78839242D01*
X177719399Y-79562972D01*
X178588744Y-80205016D01*
X179076179Y-80714052D01*
X179155230Y-80925774D01*
X178918733Y-81112479D01*
X178307669Y-81161232D01*
X177469679Y-81073220D01*
X176739428Y-80906375D01*
X176106827Y-80752350D01*
X175747976Y-80716842D01*
X175728321Y-80725826D01*
X175871028Y-80896296D01*
X176385930Y-81184712D01*
X177138429Y-81521355D01*
X177630876Y-81711294D01*
X178138982Y-81950055D01*
X178199526Y-82201496D01*
X178062554Y-82402172D01*
X177900408Y-82744644D01*
X178067428Y-83137153D01*
X178438504Y-83560884D01*
X178948573Y-84201363D01*
X179154740Y-84697128D01*
X179020155Y-84944204D01*
X178932581Y-84954945D01*
X178609179Y-84809186D01*
X177996402Y-84430929D01*
X177379721Y-84009201D01*
X176533234Y-83492329D01*
X175741670Y-83149059D01*
X175317166Y-83063456D01*
X174930642Y-82983119D01*
X174466700Y-82702482D01*
X173855892Y-82162102D01*
X173028774Y-81302540D01*
X172239158Y-80428881D01*
X170817681Y-78821618D01*
X169734314Y-77569819D01*
X168957989Y-76634274D01*
X168457639Y-75975771D01*
X168202196Y-75555100D01*
X168160594Y-75333052D01*
X168179202Y-75304732D01*
X168509466Y-75316207D01*
G37*
%TD*%
M02*
