%TF.GenerationSoftware,KiCad,Pcbnew,8.0.7*%
%TF.CreationDate,2025-02-12T01:29:36+05:30*%
%TF.ProjectId,MyNEW_PCB_ART_SJCET,4d794e45-575f-4504-9342-5f4152545f53,rev?*%
%TF.SameCoordinates,Original*%
%TF.FileFunction,Profile,NP*%
%FSLAX46Y46*%
G04 Gerber Fmt 4.6, Leading zero omitted, Abs format (unit mm)*
G04 Created by KiCad (PCBNEW 8.0.7) date 2025-02-12 01:29:36*
%MOMM*%
%LPD*%
G01*
G04 APERTURE LIST*
%TA.AperFunction,Profile*%
%ADD10C,0.072000*%
%TD*%
G04 APERTURE END LIST*
D10*
X193882918Y-101252459D02*
X194635109Y-101535542D01*
X191121603Y-82872990D02*
X184718247Y-80497552D01*
X168286565Y-99411430D02*
X172215569Y-98907344D01*
X180647079Y-78418401D02*
X177737829Y-76737593D01*
X189913954Y-98269830D02*
X193882918Y-101252459D01*
X172485429Y-98834087D02*
X172232698Y-99615604D01*
X182933507Y-99145541D02*
X188514335Y-97640093D01*
X165962679Y-83061371D02*
X165677541Y-83348889D01*
X196524414Y-101809401D02*
X196542094Y-101530923D01*
X195381173Y-87513912D02*
X194150207Y-87015068D01*
X203679223Y-91963257D02*
X198180403Y-88249893D01*
X167599206Y-96580581D02*
X165115246Y-98380232D01*
X166855277Y-74226532D02*
X166686617Y-74344835D01*
X166686617Y-74344835D02*
X173558585Y-83123651D01*
X177881580Y-77559941D02*
X178337221Y-78500067D01*
X169635917Y-75116459D02*
X166855241Y-74226532D01*
X194880863Y-101251919D02*
X195305886Y-101498991D01*
X169762990Y-94041332D02*
X167599206Y-96580581D01*
X177737829Y-76737593D02*
X177881580Y-77559941D01*
X169197333Y-92979764D02*
X170185417Y-93404808D01*
X170456307Y-89388875D02*
X166536663Y-90157306D01*
X177734632Y-102326562D02*
X177759533Y-102662612D01*
X173370723Y-83654968D02*
X165962679Y-83061371D01*
X199498003Y-95622729D02*
X201903837Y-93941273D01*
X198180403Y-88249893D02*
X196667651Y-87896042D01*
X178034058Y-104097395D02*
X178819751Y-103169837D01*
X173106094Y-101974803D02*
X174457966Y-100799648D01*
X171548716Y-102776213D02*
X171766372Y-103170622D01*
X196542094Y-101530923D02*
X197144075Y-101889490D01*
X198084888Y-100758305D02*
X198436741Y-96964337D01*
X198267909Y-102208853D02*
X198084888Y-100758305D01*
X177138875Y-102795578D02*
X177734632Y-102326562D01*
X184718247Y-80497552D02*
X180647079Y-78418401D01*
X173558585Y-83123651D02*
X173985682Y-83590046D01*
X178819751Y-103169837D02*
X180853121Y-100651871D01*
X193361404Y-85838346D02*
X192251880Y-84125078D01*
X189196243Y-97577306D02*
X189913954Y-98269830D01*
X178215257Y-78691115D02*
X169635917Y-75116459D01*
X178496539Y-78885324D02*
X178215257Y-78691115D01*
X170185417Y-93404808D02*
X169762990Y-94041332D01*
X201903837Y-93941273D02*
X203679223Y-91963257D01*
X166536663Y-90157306D02*
X164908188Y-90327953D01*
X192251880Y-84125078D02*
X191121603Y-82872990D01*
X194635109Y-101535542D02*
X194880863Y-101251919D01*
X171766372Y-103170622D02*
X173106094Y-101974803D01*
X164562185Y-98785026D02*
X164771179Y-99046584D01*
X167523192Y-92167888D02*
X169197333Y-92979764D01*
X198000868Y-102309300D02*
X198267909Y-102208853D01*
X164908188Y-90327953D02*
X167523192Y-92167888D01*
X165115246Y-98380232D02*
X164562185Y-98785026D01*
X196667651Y-87896042D02*
X195381173Y-87513912D01*
X188514335Y-97640093D02*
X189196243Y-97577306D01*
X177759533Y-102662612D02*
X178034058Y-104097395D01*
X172215569Y-98907344D02*
X172485429Y-98834087D01*
X172232698Y-99615604D02*
X171548716Y-102776213D01*
X178337221Y-78500067D02*
X178496539Y-78885324D01*
X198436741Y-96964337D02*
X199498003Y-95622729D01*
X193900075Y-86771135D02*
X193361404Y-85838346D01*
X173171999Y-104049238D02*
X172985177Y-104479514D01*
X180853121Y-100651871D02*
X182933507Y-99145541D01*
X165677541Y-83348889D02*
X166427017Y-84471333D01*
X173985682Y-83590046D02*
X173370723Y-83654968D01*
X164771179Y-99046584D02*
X168286565Y-99411430D01*
X195305886Y-101498991D02*
X196448620Y-102155926D01*
X196448620Y-102155926D02*
X196524414Y-101809401D01*
X174457966Y-100799648D02*
X173171999Y-104049238D01*
X197144075Y-101889490D02*
X198000868Y-102309300D01*
X171276253Y-89069577D02*
X170456307Y-89388875D01*
X170057751Y-88039415D02*
X171276253Y-89069577D01*
X166427017Y-84471333D02*
X170057751Y-88039415D01*
X174385311Y-104334005D02*
X177138875Y-102795578D01*
X194150207Y-87015068D02*
X193900075Y-86771135D01*
X172985177Y-104479514D02*
X174385311Y-104334005D01*
M02*
